<svg
  width="136"
  height="42"
  viewBox="0 0 136 42"
  fill="black"
  xmlns="http://www.w3.org/2000/svg"
>
  <path
    d="M53.5582 24.1918C53.0398 24.1918 52.5692 24.0941 52.1467 23.8988C51.7241 23.6999 51.3885 23.4141 51.1399 23.0412C50.8913 22.6648 50.767 22.2102 50.767 21.6776C50.767 21.2088 50.8594 20.8288 51.044 20.5376C51.2287 20.2429 51.4755 20.0121 51.7844 19.8452C52.0934 19.6783 52.4343 19.554 52.8072 19.4723C53.1836 19.3871 53.5618 19.3196 53.9418 19.2699C54.4389 19.206 54.842 19.158 55.1509 19.1261C55.4634 19.0906 55.6907 19.032 55.8327 18.9503C55.9783 18.8686 56.0511 18.7266 56.0511 18.5241V18.4815C56.0511 17.956 55.9073 17.5476 55.6197 17.2564C55.3356 16.9652 54.9041 16.8196 54.3253 16.8196C53.7251 16.8196 53.2546 16.951 52.9137 17.2138C52.5728 17.4766 52.3331 17.7571 52.1946 18.0554L51.0014 17.6293C51.2145 17.1321 51.4986 16.745 51.8537 16.468C52.2124 16.1875 52.603 15.9922 53.0256 15.8821C53.4517 15.7685 53.8707 15.7116 54.2827 15.7116C54.5455 15.7116 54.8473 15.7436 55.1882 15.8075C55.5327 15.8679 55.8647 15.994 56.1843 16.1857C56.5075 16.3775 56.7756 16.6669 56.9886 17.054C57.2017 17.4411 57.3082 17.9595 57.3082 18.6094V24H56.0511V22.892H55.9872C55.902 23.0696 55.7599 23.2596 55.5611 23.462C55.3622 23.6644 55.0977 23.8366 54.7674 23.9787C54.4371 24.1207 54.0341 24.1918 53.5582 24.1918ZM53.75 23.0625C54.2472 23.0625 54.6662 22.9648 55.0071 22.7695C55.3516 22.5742 55.6108 22.3221 55.7848 22.0131C55.9624 21.7042 56.0511 21.3793 56.0511 21.0384V19.8878C55.9979 19.9517 55.8807 20.0103 55.6996 20.0636C55.522 20.1133 55.3161 20.1577 55.0817 20.1967C54.8509 20.2322 54.6254 20.2642 54.4052 20.2926C54.1886 20.3175 54.0128 20.3388 53.8778 20.3565C53.5511 20.3991 53.2457 20.4684 52.9616 20.5643C52.6811 20.6566 52.4538 20.7969 52.2798 20.9851C52.1094 21.1697 52.0241 21.4219 52.0241 21.7415C52.0241 22.1783 52.1857 22.5085 52.5089 22.7322C52.8356 22.9524 53.2493 23.0625 53.75 23.0625ZM60.8598 19.0781V24H59.6027V13.0909H60.8598V17.0966H60.9664C61.1581 16.674 61.4458 16.3384 61.8293 16.0898C62.2164 15.8377 62.7313 15.7116 63.374 15.7116C63.9316 15.7116 64.4198 15.8235 64.8389 16.0472C65.2579 16.2674 65.5828 16.6065 65.8137 17.0646C66.048 17.5192 66.1652 18.098 66.1652 18.8011V24H64.9081V18.8864C64.9081 18.2365 64.7394 17.734 64.4021 17.3789C64.0683 17.0202 63.6048 16.8409 63.0118 16.8409C62.5999 16.8409 62.2306 16.9279 61.9039 17.1019C61.5807 17.2759 61.325 17.5298 61.1368 17.8636C60.9521 18.1974 60.8598 18.6023 60.8598 19.0781ZM68.465 24V15.8182H69.6795V17.054H69.7647C69.9139 16.6491 70.1838 16.3207 70.5744 16.0685C70.965 15.8164 71.4054 15.6903 71.8954 15.6903C71.9877 15.6903 72.1032 15.6921 72.2417 15.6957C72.3801 15.6992 72.4849 15.7045 72.5559 15.7116V16.9901C72.5133 16.9794 72.4157 16.9634 72.263 16.9421C72.1138 16.9173 71.9558 16.9048 71.7889 16.9048C71.3912 16.9048 71.036 16.9883 70.7235 17.1552C70.4146 17.3185 70.1696 17.5458 69.9885 17.837C69.8109 18.1246 69.7221 18.4531 69.7221 18.8224V24H68.465ZM74.2165 24V13.0909H75.4736V17.1179H75.5802C75.6725 16.9759 75.8003 16.7947 75.9637 16.5746C76.1306 16.3509 76.3685 16.152 76.6775 15.978C76.99 15.8004 77.4126 15.7116 77.9452 15.7116C78.6341 15.7116 79.2414 15.8839 79.767 16.2283C80.2925 16.5728 80.7027 17.0611 80.9974 17.6932C81.2922 18.3253 81.4395 19.071 81.4395 19.9304C81.4395 20.7969 81.2922 21.5479 80.9974 22.1836C80.7027 22.8157 80.2943 23.3058 79.7723 23.6538C79.2503 23.9982 78.6483 24.1705 77.9665 24.1705C77.441 24.1705 77.0202 24.0835 76.7041 23.9094C76.3881 23.7319 76.1448 23.5312 75.9743 23.3075C75.8039 23.0803 75.6725 22.892 75.5802 22.7429H75.431V24H74.2165ZM75.4523 19.9091C75.4523 20.527 75.5429 21.0721 75.724 21.5444C75.9051 22.0131 76.1697 22.3807 76.5177 22.647C76.8657 22.9098 77.2918 23.0412 77.7961 23.0412C78.3216 23.0412 78.7602 22.9027 79.1118 22.6257C79.4669 22.3452 79.7332 21.9687 79.9108 21.4964C80.0919 21.0206 80.1824 20.4915 80.1824 19.9091C80.1824 19.3338 80.0937 18.8153 79.9161 18.3537C79.7421 17.8885 79.4775 17.521 79.1224 17.2511C78.7709 16.9776 78.3287 16.8409 77.7961 16.8409C77.2847 16.8409 76.855 16.9705 76.507 17.2298C76.159 17.4854 75.8962 17.8441 75.7187 18.3058C75.5411 18.7638 75.4523 19.2983 75.4523 19.9091ZM83.3625 24V15.8182H84.6196V24H83.3625ZM84.0017 14.4545C83.7567 14.4545 83.5454 14.3711 83.3678 14.2042C83.1938 14.0373 83.1068 13.8366 83.1068 13.6023C83.1068 13.3679 83.1938 13.1673 83.3678 13.0004C83.5454 12.8335 83.7567 12.75 84.0017 12.75C84.2467 12.75 84.4562 12.8335 84.6302 13.0004C84.8078 13.1673 84.8966 13.3679 84.8966 13.6023C84.8966 13.8366 84.8078 14.0373 84.6302 14.2042C84.4562 14.3711 84.2467 14.4545 84.0017 14.4545ZM90.4803 15.8182V16.8835H86.2402V15.8182H90.4803ZM87.476 13.858H88.7331V21.6562C88.7331 22.0114 88.7846 22.2777 88.8876 22.4553C88.9941 22.6293 89.1291 22.7464 89.2924 22.8068C89.4593 22.8636 89.6351 22.892 89.8198 22.892C89.9583 22.892 90.0719 22.8849 90.1607 22.8707C90.2495 22.853 90.3205 22.8388 90.3738 22.8281L90.6294 23.9574C90.5442 23.9893 90.4252 24.0213 90.2725 24.0533C90.1199 24.0888 89.9263 24.1065 89.6919 24.1065C89.3368 24.1065 88.9888 24.0302 88.6479 23.8775C88.3105 23.7248 88.03 23.4922 87.8063 23.1797C87.5861 22.8672 87.476 22.473 87.476 21.9972V13.858ZM94.3315 13.0909L96.5314 16.8089H96.6167L98.8272 13.0909H101.432L98.1028 18.5455L101.507 24H98.8539L96.6167 20.2766H96.5314L94.2942 24H91.6522L95.0666 18.5455L91.7161 13.0909H94.3315ZM105.39 18.2525C104.907 18.2525 104.466 18.1353 104.069 17.9009C103.675 17.663 103.36 17.3469 103.126 16.9528C102.892 16.555 102.774 16.1147 102.774 15.6317C102.774 15.1523 102.892 14.7156 103.126 14.3214C103.36 13.9237 103.675 13.6076 104.069 13.3732C104.466 13.1353 104.907 13.0163 105.39 13.0163C105.873 13.0163 106.311 13.1353 106.705 13.3732C107.103 13.6076 107.419 13.9237 107.654 14.3214C107.888 14.7156 108.005 15.1523 108.005 15.6317C108.005 16.1147 107.888 16.555 107.654 16.9528C107.419 17.3469 107.103 17.663 106.705 17.9009C106.311 18.1353 105.873 18.2525 105.39 18.2525ZM105.39 16.7397C105.596 16.7397 105.782 16.69 105.949 16.5906C106.116 16.4911 106.247 16.358 106.343 16.1911C106.443 16.0241 106.492 15.8377 106.492 15.6317C106.492 15.4293 106.443 15.2447 106.343 15.0778C106.247 14.9109 106.116 14.7777 105.949 14.6783C105.782 14.5788 105.596 14.5291 105.39 14.5291C105.187 14.5291 105.003 14.5788 104.836 14.6783C104.669 14.7777 104.536 14.9109 104.436 15.0778C104.337 15.2447 104.287 15.4293 104.287 15.6317C104.287 15.8377 104.337 16.0241 104.436 16.1911C104.536 16.358 104.669 16.4911 104.836 16.5906C105.003 16.69 105.187 16.7397 105.39 16.7397Z"
  />
  <path
    d="M28.352 27.156H28.732V30H28.352V27.156ZM30.4859 27.908C30.7046 27.908 30.8713 27.9707 30.9859 28.096C31.1033 28.2213 31.1619 28.4027 31.1619 28.64V30H30.7859V28.668C30.7859 28.5053 30.7539 28.388 30.6899 28.316C30.6286 28.2413 30.5286 28.204 30.3899 28.204C30.2646 28.204 30.1499 28.2333 30.0459 28.292C29.9419 28.348 29.8566 28.4267 29.7899 28.528V30H29.4139V27.944H29.7219L29.7659 28.232C29.9499 28.016 30.1899 27.908 30.4859 27.908ZM32.8688 27.908C33.0874 27.908 33.2541 27.9707 33.3688 28.096C33.4861 28.2213 33.5448 28.4027 33.5448 28.64V30H33.1688V28.668C33.1688 28.5053 33.1368 28.388 33.0728 28.316C33.0114 28.2413 32.9114 28.204 32.7728 28.204C32.6474 28.204 32.5328 28.2333 32.4288 28.292C32.3248 28.348 32.2394 28.4267 32.1728 28.528V30H31.7968V27.944H32.1048L32.1488 28.232C32.3328 28.016 32.5728 27.908 32.8688 27.908ZM34.0356 28.968C34.0356 28.6347 34.1196 28.3747 34.2876 28.188C34.4582 28.0013 34.6996 27.908 35.0116 27.908C35.3236 27.908 35.5636 28.0013 35.7316 28.188C35.9022 28.3747 35.9876 28.6347 35.9876 28.968C35.9876 29.3013 35.9022 29.5627 35.7316 29.752C35.5636 29.9387 35.3236 30.032 35.0116 30.032C34.6996 30.032 34.4582 29.9387 34.2876 29.752C34.1196 29.5627 34.0356 29.3013 34.0356 28.968ZM34.4196 28.968C34.4196 29.2187 34.4702 29.4093 34.5716 29.54C34.6756 29.6707 34.8222 29.736 35.0116 29.736C35.2009 29.736 35.3462 29.6707 35.4476 29.54C35.5516 29.4093 35.6036 29.2187 35.6036 28.968C35.6036 28.7173 35.5516 28.528 35.4476 28.4C35.3462 28.2693 35.2009 28.204 35.0116 28.204C34.8222 28.204 34.6756 28.2693 34.5716 28.4C34.4702 28.528 34.4196 28.7173 34.4196 28.968ZM37.7759 27.944H38.1399L37.4199 30H36.9439L36.2159 27.944H36.6039L37.1959 29.664L37.7759 27.944ZM38.3557 29.444C38.3557 29.2253 38.4437 29.056 38.6197 28.936C38.7957 28.816 39.045 28.756 39.3677 28.756H39.6717V28.676C39.6717 28.5053 39.6357 28.384 39.5637 28.312C39.4944 28.24 39.3744 28.204 39.2037 28.204C39.0944 28.204 38.997 28.2147 38.9117 28.236C38.8264 28.2547 38.717 28.2933 38.5837 28.352L38.4717 28.092C38.7224 27.9693 38.969 27.908 39.2117 27.908C39.5024 27.908 39.7144 27.9707 39.8477 28.096C39.981 28.2187 40.0477 28.4147 40.0477 28.684V30H39.7557C39.753 29.9893 39.7477 29.964 39.7397 29.924C39.7317 29.8813 39.7197 29.8267 39.7037 29.76C39.5117 29.952 39.2877 30.048 39.0317 30.048C38.8264 30.048 38.6624 29.9933 38.5397 29.884C38.417 29.7747 38.3557 29.628 38.3557 29.444ZM38.7317 29.436C38.7317 29.5373 38.7637 29.616 38.8277 29.672C38.8917 29.7253 38.9837 29.752 39.1037 29.752C39.2104 29.752 39.3144 29.728 39.4157 29.68C39.517 29.6293 39.6024 29.5613 39.6717 29.476V29.036H39.3917C39.173 29.036 39.0077 29.0693 38.8957 29.136C38.7864 29.2027 38.7317 29.3027 38.7317 29.436ZM40.4715 28.232V27.944H40.8635L40.9275 27.344H41.2075V27.944H41.8355V28.232H41.2075V29.368C41.2075 29.6053 41.3075 29.724 41.5075 29.724C41.5875 29.724 41.6861 29.7053 41.8035 29.668L41.8675 29.932C41.7208 29.9933 41.5781 30.024 41.4395 30.024C41.2608 30.024 41.1141 29.9707 40.9995 29.864C40.8875 29.7573 40.8315 29.5987 40.8315 29.388V28.232H40.4715ZM42.3128 27.168H42.6808V27.516H42.3128V27.168ZM42.3128 27.944H42.6808V30H42.3128V27.944ZM44.4234 27.908C44.6421 27.908 44.8088 27.9707 44.9234 28.096C45.0408 28.2213 45.0994 28.4027 45.0994 28.64V30H44.7234V28.668C44.7234 28.5053 44.6914 28.388 44.6274 28.316C44.5661 28.2413 44.4661 28.204 44.3274 28.204C44.2021 28.204 44.0874 28.2333 43.9834 28.292C43.8794 28.348 43.7941 28.4267 43.7274 28.528V30H43.3514V27.944H43.6594L43.7034 28.232C43.8874 28.016 44.1274 27.908 44.4234 27.908ZM47.4583 27.94V30.12C47.4583 30.7093 47.1463 31.004 46.5223 31.004C46.2209 31.004 45.9356 30.9347 45.6663 30.796L45.7943 30.52C45.9383 30.592 46.0623 30.6413 46.1663 30.668C46.2703 30.6947 46.3889 30.708 46.5223 30.708C46.7223 30.708 46.8649 30.6627 46.9503 30.572C47.0383 30.484 47.0823 30.336 47.0823 30.128V29.768C46.9383 29.944 46.7423 30.032 46.4943 30.032C46.2089 30.032 45.9863 29.944 45.8263 29.768C45.6689 29.5893 45.5903 29.3347 45.5903 29.004C45.5903 28.66 45.6836 28.392 45.8703 28.2C46.0596 28.0053 46.3183 27.908 46.6463 27.908C46.8196 27.908 46.9863 27.9333 47.1463 27.984L47.1583 27.94H47.4583ZM46.5183 29.736C46.6569 29.736 46.7756 29.6987 46.8743 29.624C46.9756 29.5467 47.0449 29.44 47.0823 29.304V28.264C46.9463 28.224 46.8023 28.204 46.6503 28.204C46.4396 28.204 46.2743 28.2747 46.1543 28.416C46.0343 28.5547 45.9743 28.7507 45.9743 29.004C45.9743 29.2387 46.0209 29.42 46.1143 29.548C46.2103 29.6733 46.3449 29.736 46.5183 29.736ZM50.5051 28.512C50.6864 28.5627 50.8224 28.644 50.9131 28.756C51.0064 28.8653 51.0531 29.0013 51.0531 29.164C51.0531 29.4253 50.9691 29.6307 50.8011 29.78C50.6357 29.9267 50.3957 30 50.0811 30H49.1291V27.168H49.9651C50.2877 27.168 50.5304 27.2333 50.6931 27.364C50.8557 27.4947 50.9371 27.68 50.9371 27.92C50.9371 28.2053 50.7931 28.4027 50.5051 28.512ZM49.5091 27.488V28.376H49.9651C50.1517 28.376 50.2931 28.3387 50.3891 28.264C50.4877 28.1867 50.5371 28.072 50.5371 27.92C50.5371 27.632 50.3464 27.488 49.9651 27.488H49.5091ZM50.0811 29.68C50.2651 29.68 50.4064 29.636 50.5051 29.548C50.6037 29.46 50.6531 29.332 50.6531 29.164C50.6531 29.0093 50.5984 28.8933 50.4891 28.816C50.3824 28.736 50.2264 28.696 50.0211 28.696H49.5091V29.68H50.0811ZM51.4223 28.968C51.4223 28.632 51.5063 28.372 51.6743 28.188C51.8423 28.0013 52.0796 27.908 52.3863 27.908C52.6876 27.908 52.9049 27.9987 53.0383 28.18C53.1743 28.3587 53.2423 28.6173 53.2423 28.956V29.02H51.8063C51.8116 29.252 51.8663 29.4293 51.9703 29.552C52.0743 29.6747 52.2236 29.736 52.4183 29.736C52.5249 29.736 52.6276 29.724 52.7263 29.7C52.8249 29.6733 52.9343 29.6333 53.0543 29.58L53.1623 29.836C53.0263 29.9053 52.8969 29.956 52.7743 29.988C52.6516 30.0173 52.5263 30.032 52.3983 30.032C52.0889 30.032 51.8489 29.9387 51.6783 29.752C51.5076 29.5653 51.4223 29.304 51.4223 28.968ZM52.3863 28.204C52.2289 28.204 52.1023 28.2493 52.0063 28.34C51.9129 28.4307 51.8516 28.564 51.8223 28.74H52.8463C52.8276 28.556 52.7809 28.4213 52.7063 28.336C52.6316 28.248 52.5249 28.204 52.3863 28.204ZM55.0225 27.944H55.3865L54.3265 30.984H53.9865L54.3225 30H54.1665L53.4385 27.944H53.8265L54.4305 29.684L55.0225 27.944ZM55.6098 28.968C55.6098 28.6347 55.6938 28.3747 55.8618 28.188C56.0324 28.0013 56.2738 27.908 56.5858 27.908C56.8978 27.908 57.1378 28.0013 57.3058 28.188C57.4764 28.3747 57.5618 28.6347 57.5618 28.968C57.5618 29.3013 57.4764 29.5627 57.3058 29.752C57.1378 29.9387 56.8978 30.032 56.5858 30.032C56.2738 30.032 56.0324 29.9387 55.8618 29.752C55.6938 29.5627 55.6098 29.3013 55.6098 28.968ZM55.9938 28.968C55.9938 29.2187 56.0444 29.4093 56.1458 29.54C56.2498 29.6707 56.3964 29.736 56.5858 29.736C56.7751 29.736 56.9204 29.6707 57.0218 29.54C57.1258 29.4093 57.1778 29.2187 57.1778 28.968C57.1778 28.7173 57.1258 28.528 57.0218 28.4C56.9204 28.2693 56.7751 28.204 56.5858 28.204C56.3964 28.204 56.2498 28.2693 56.1458 28.4C56.0444 28.528 55.9938 28.7173 55.9938 28.968ZM59.1461 27.908C59.3648 27.908 59.5314 27.9707 59.6461 28.096C59.7634 28.2213 59.8221 28.4027 59.8221 28.64V30H59.4461V28.668C59.4461 28.5053 59.4141 28.388 59.3501 28.316C59.2888 28.2413 59.1888 28.204 59.0501 28.204C58.9248 28.204 58.8101 28.2333 58.7061 28.292C58.6021 28.348 58.5168 28.4267 58.4501 28.528V30H58.0741V27.944H58.3821L58.4261 28.232C58.6101 28.016 58.8501 27.908 59.1461 27.908ZM62.1809 26.964V29.996H61.8769L61.8249 29.744C61.6729 29.936 61.4702 30.032 61.2169 30.032C60.9316 30.032 60.7089 29.944 60.5489 29.768C60.3916 29.5893 60.3129 29.3347 60.3129 29.004C60.3129 28.66 60.4062 28.392 60.5929 28.2C60.7822 28.0053 61.0409 27.908 61.3689 27.908C61.5102 27.908 61.6556 27.9267 61.8049 27.964V26.964H62.1809ZM61.2409 29.736C61.3796 29.736 61.4982 29.6987 61.5969 29.624C61.6982 29.5467 61.7676 29.44 61.8049 29.304V28.264C61.6689 28.224 61.5249 28.204 61.3729 28.204C61.1622 28.204 60.9969 28.2747 60.8769 28.416C60.7569 28.5547 60.6969 28.7507 60.6969 29.004C60.6969 29.2387 60.7436 29.42 60.8369 29.548C60.9329 29.6733 61.0676 29.736 61.2409 29.736ZM63.84 27.168H64.22V29.668H65.516V30H63.84V27.168ZM65.9729 27.168H66.3409V27.516H65.9729V27.168ZM65.9729 27.944H66.3409V30H65.9729V27.944ZM69.3876 27.908C69.6196 27.908 69.7943 27.9707 69.9116 28.096C70.0289 28.2187 70.0876 28.4 70.0876 28.64V30H69.7116V28.668C69.7116 28.5053 69.6796 28.388 69.6156 28.316C69.5543 28.2413 69.4543 28.204 69.3156 28.204C69.1956 28.204 69.0836 28.2333 68.9796 28.292C68.8783 28.348 68.7969 28.4267 68.7356 28.528C68.7383 28.552 68.7396 28.5893 68.7396 28.64V30H68.3636V28.668C68.3636 28.5053 68.3316 28.388 68.2676 28.316C68.2063 28.2413 68.1063 28.204 67.9676 28.204C67.8476 28.204 67.7369 28.2333 67.6356 28.292C67.5343 28.348 67.4516 28.4253 67.3876 28.524V30H67.0116V27.944H67.3196L67.3596 28.224C67.5383 28.0133 67.7649 27.908 68.0396 27.908C68.3623 27.908 68.5743 28.028 68.6756 28.268C68.8569 28.028 69.0943 27.908 69.3876 27.908ZM70.7385 27.168H71.1065V27.516H70.7385V27.168ZM70.7385 27.944H71.1065V30H70.7385V27.944ZM71.5652 28.232V27.944H71.9572L72.0212 27.344H72.3012V27.944H72.9292V28.232H72.3012V29.368C72.3012 29.6053 72.4012 29.724 72.6012 29.724C72.6812 29.724 72.7799 29.7053 72.8972 29.668L72.9612 29.932C72.8146 29.9933 72.6719 30.024 72.5332 30.024C72.3546 30.024 72.2079 29.9707 72.0932 29.864C71.9812 29.7573 71.9252 29.5987 71.9252 29.388V28.232H71.5652ZM73.3785 29.576C73.4985 29.6267 73.6012 29.664 73.6865 29.688C73.7745 29.712 73.8652 29.724 73.9585 29.724C74.0785 29.724 74.1718 29.6987 74.2385 29.648C74.3078 29.5973 74.3425 29.5227 74.3425 29.424C74.3425 29.3627 74.3238 29.3133 74.2865 29.276C74.2518 29.236 74.2118 29.2067 74.1665 29.188C74.1238 29.1693 74.0425 29.14 73.9225 29.1C73.9038 29.0947 73.8332 29.0707 73.7105 29.028C73.5878 28.9853 73.4932 28.9187 73.4265 28.828C73.3625 28.7373 73.3305 28.6253 73.3305 28.492C73.3305 28.3267 73.3945 28.188 73.5225 28.076C73.6505 27.964 73.8385 27.908 74.0865 27.908C74.1905 27.908 74.2878 27.92 74.3785 27.944C74.4718 27.968 74.5692 28 74.6705 28.04L74.5705 28.336C74.4825 28.3013 74.3998 28.2733 74.3225 28.252C74.2478 28.2307 74.1692 28.22 74.0865 28.22C73.9612 28.22 73.8665 28.2453 73.8025 28.296C73.7385 28.344 73.7065 28.408 73.7065 28.488C73.7065 28.5627 73.7318 28.6187 73.7825 28.656C73.8332 28.6907 73.9145 28.728 74.0265 28.768C74.0558 28.776 74.0825 28.7853 74.1065 28.796L74.2025 28.832C74.3145 28.8693 74.4038 28.9067 74.4705 28.944C74.5398 28.9813 74.5985 29.0387 74.6465 29.116C74.6945 29.1907 74.7185 29.2907 74.7185 29.416C74.7185 29.6133 74.6478 29.7667 74.5065 29.876C74.3678 29.9827 74.1865 30.036 73.9625 30.036C73.8318 30.036 73.7105 30.0227 73.5985 29.996C73.4865 29.9667 73.3745 29.928 73.2625 29.88L73.3785 29.576Z"
  />
  <rect x="77" y="27" width="25" height="3" />
  <path d="M38.8208 10.5L38.8208 5.00001L48.8208 24L45.8208 24L38.8208 10.5Z" />
  <path d="M38.8207 10.5L38.8207 5L28.8207 24L31.8207 24L38.8207 10.5Z" />
</svg>
