<svg
  width="50"
  height="50"
  fill="black"
  viewBox="0 0 50 50"
  fill="black"
  xmlns="http://www.w3.org/2000/svg"
>
  <path
    d="M38.4464 13.2525C37.9634 13.2525 37.5231 13.1353 37.1254 12.9009C36.7312 12.663 36.4169 12.3469 36.1825 11.9528C35.9482 11.555 35.831 11.1147 35.831 10.6317C35.831 10.1523 35.9482 9.71555 36.1825 9.32138C36.4169 8.92365 36.7312 8.6076 37.1254 8.37322C37.5231 8.1353 37.9634 8.01634 38.4464 8.01634C38.9293 8.01634 39.3679 8.1353 39.7621 8.37322C40.1598 8.6076 40.4759 8.92365 40.7102 9.32138C40.9446 9.71555 41.0618 10.1523 41.0618 10.6317C41.0618 11.1147 40.9446 11.555 40.7102 11.9528C40.4759 12.3469 40.1598 12.663 39.7621 12.9009C39.3679 13.1353 38.9293 13.2525 38.4464 13.2525ZM38.4464 11.7397C38.6523 11.7397 38.8388 11.69 39.0057 11.5906C39.1726 11.4911 39.304 11.358 39.3999 11.1911C39.4993 11.0241 39.549 10.8377 39.549 10.6317C39.549 10.4293 39.4993 10.2447 39.3999 10.0778C39.304 9.91087 39.1726 9.7777 39.0057 9.67827C38.8388 9.57884 38.6523 9.52912 38.4464 9.52912C38.244 9.52912 38.0593 9.57884 37.8924 9.67827C37.7255 9.7777 37.5923 9.91087 37.4929 10.0778C37.3935 10.2447 37.3438 10.4293 37.3438 10.6317C37.3438 10.8377 37.3935 11.0241 37.4929 11.1911C37.5923 11.358 37.7255 11.4911 37.8924 11.5906C38.0593 11.69 38.244 11.7397 38.4464 11.7397Z"
  />
  <path
    d="M25.5247 18.8841L25.5247 12L38.9477 35.7814L34.9208 35.7814L25.5247 18.8841Z"
  />
  <path
    d="M25.5247 18.8841L25.5247 12L12.1017 35.7814L16.1286 35.7814L25.5247 18.8841Z"
  />
</svg>
