<svg width="231" height="55" viewBox="0 0 231 55" fill="none" xmlns="http://www.w3.org/2000/svg">
<path d="M0.0166903 30V0.90909H11.6644C13.8046 0.90909 15.5896 1.22633 17.0195 1.8608C18.4495 2.49527 19.5243 3.37595 20.244 4.50284C20.9637 5.62027 21.3235 6.90814 21.3235 8.36648C21.3235 9.50284 21.0962 10.5019 20.6417 11.3636C20.1871 12.2159 19.5621 12.9167 18.7667 13.4659C17.9807 14.0057 17.0811 14.3892 16.0678 14.6165V14.9006C17.1758 14.9479 18.2127 15.2604 19.1786 15.8381C20.154 16.4157 20.9447 17.2254 21.5508 18.267C22.1568 19.2992 22.4599 20.5303 22.4599 21.9602C22.4599 23.5038 22.0764 24.8816 21.3093 26.0938C20.5517 27.2964 19.4296 28.2481 17.9428 28.9489C16.4561 29.6496 14.6237 30 12.4457 30H0.0166903ZM6.16726 24.9716H11.1815C12.8955 24.9716 14.1455 24.6449 14.9315 23.9915C15.7174 23.3286 16.1104 22.4479 16.1104 21.3494C16.1104 20.5445 15.9163 19.8343 15.5281 19.2188C15.1398 18.6032 14.5858 18.1203 13.8661 17.7699C13.1559 17.4195 12.3084 17.2443 11.3235 17.2443H6.16726V24.9716ZM6.16726 13.0824H10.7269C11.5697 13.0824 12.3178 12.9356 12.9712 12.642C13.6341 12.339 14.1549 11.9129 14.5337 11.3636C14.922 10.8144 15.1161 10.1562 15.1161 9.3892C15.1161 8.33807 14.7421 7.49053 13.994 6.84659C13.2553 6.20265 12.2042 5.88068 10.8406 5.88068H6.16726V13.0824ZM40.3398 20.7102V8.18182H46.391V30H40.5813V26.0369H40.354C39.8616 27.3153 39.0425 28.3428 37.8967 29.1193C36.7603 29.8958 35.373 30.2841 33.7347 30.2841C32.2764 30.2841 30.9933 29.9527 29.8853 29.2898C28.7773 28.6269 27.9109 27.6847 27.2859 26.4631C26.6703 25.2415 26.3578 23.7784 26.3484 22.0739V8.18182H32.3995V20.9943C32.409 22.2822 32.7546 23.3002 33.4364 24.0483C34.1183 24.7964 35.0321 25.1705 36.1779 25.1705C36.9071 25.1705 37.5889 25.0047 38.2234 24.6733C38.8578 24.3324 39.3692 23.8305 39.7575 23.1676C40.1552 22.5047 40.3493 21.6856 40.3398 20.7102ZM62.8363 8.18182V12.7273H49.6971V8.18182H62.8363ZM52.68 2.95455H58.7312V23.2955C58.7312 23.8542 58.8164 24.2898 58.9869 24.6023C59.1573 24.9053 59.3941 25.1184 59.6971 25.2415C60.0096 25.3646 60.3694 25.4261 60.7766 25.4261C61.0607 25.4261 61.3448 25.4025 61.6289 25.3551C61.913 25.2983 62.1308 25.2557 62.2823 25.2273L63.234 29.7301C62.931 29.8248 62.5049 29.9337 61.9556 30.0568C61.4064 30.1894 60.7388 30.2699 59.9528 30.2983C58.4944 30.3551 57.216 30.161 56.1175 29.7159C55.0285 29.2708 54.181 28.5795 53.5749 27.642C52.9689 26.7045 52.6706 25.5208 52.68 24.0909V2.95455ZM78.3832 8.18182V12.7273H65.244V8.18182H78.3832ZM68.2269 2.95455H74.2781V23.2955C74.2781 23.8542 74.3633 24.2898 74.5337 24.6023C74.7042 24.9053 74.9409 25.1184 75.244 25.2415C75.5565 25.3646 75.9163 25.4261 76.3235 25.4261C76.6076 25.4261 76.8917 25.4025 77.1758 25.3551C77.4599 25.2983 77.6777 25.2557 77.8292 25.2273L78.7809 29.7301C78.4779 29.8248 78.0517 29.9337 77.5025 30.0568C76.9532 30.1894 76.2856 30.2699 75.4996 30.2983C74.0413 30.3551 72.7629 30.161 71.6644 29.7159C70.5754 29.2708 69.7279 28.5795 69.1218 27.642C68.5157 26.7045 68.2174 25.5208 68.2269 24.0909V2.95455ZM92.0337 30.4261C89.7894 30.4261 87.8576 29.9716 86.2383 29.0625C84.6284 28.1439 83.3879 26.8466 82.5167 25.1705C81.6455 23.4848 81.2099 21.4915 81.2099 19.1903C81.2099 16.946 81.6455 14.9763 82.5167 13.2812C83.3879 11.5862 84.6142 10.2652 86.1957 9.31818C87.7866 8.37121 89.6521 7.89773 91.7923 7.89773C93.2317 7.89773 94.5716 8.12973 95.8121 8.59375C97.0621 9.0483 98.1512 9.73485 99.0792 10.6534C100.017 11.572 100.746 12.7273 101.267 14.1193C101.788 15.5019 102.048 17.1212 102.048 18.9773V20.6392H83.6246V16.8892H96.3519C96.3519 16.018 96.1625 15.2462 95.7837 14.5739C95.4049 13.9015 94.8794 13.3759 94.207 12.9972C93.5442 12.6089 92.7724 12.4148 91.8917 12.4148C90.9731 12.4148 90.1587 12.6278 89.4485 13.054C88.7478 13.4706 88.1985 14.0341 87.8008 14.7443C87.4031 15.4451 87.1995 16.2263 87.19 17.0881V20.6534C87.19 21.733 87.3888 22.6657 87.7866 23.4517C88.1938 24.2377 88.7667 24.8438 89.5053 25.2699C90.244 25.696 91.1199 25.9091 92.1332 25.9091C92.8055 25.9091 93.421 25.8144 93.9798 25.625C94.5385 25.4356 95.0167 25.1515 95.4144 24.7727C95.8121 24.3939 96.1152 23.9299 96.3235 23.3807L101.92 23.75C101.636 25.0947 101.054 26.2689 100.173 27.2727C99.3017 28.267 98.1748 29.0436 96.7923 29.6023C95.4192 30.1515 93.833 30.4261 92.0337 30.4261ZM105.997 30V8.18182H111.863V11.9886H112.091C112.488 10.6345 113.156 9.61174 114.093 8.92045C115.031 8.2197 116.11 7.86932 117.332 7.86932C117.635 7.86932 117.962 7.88826 118.312 7.92614C118.663 7.96402 118.97 8.0161 119.235 8.08239V13.4517C118.951 13.3665 118.558 13.2907 118.056 13.2244C117.555 13.1581 117.095 13.125 116.679 13.125C115.788 13.125 114.993 13.3191 114.292 13.7074C113.601 14.0862 113.052 14.6165 112.645 15.2983C112.247 15.9801 112.048 16.7661 112.048 17.6562V30H105.997ZM122.478 30V0.90909H134.125C136.266 0.90909 138.051 1.22633 139.48 1.8608C140.91 2.49527 141.985 3.37595 142.705 4.50284C143.425 5.62027 143.784 6.90814 143.784 8.36648C143.784 9.50284 143.557 10.5019 143.103 11.3636C142.648 12.2159 142.023 12.9167 141.228 13.4659C140.442 14.0057 139.542 14.3892 138.529 14.6165V14.9006C139.637 14.9479 140.674 15.2604 141.64 15.8381C142.615 16.4157 143.406 17.2254 144.012 18.267C144.618 19.2992 144.921 20.5303 144.921 21.9602C144.921 23.5038 144.537 24.8816 143.77 26.0938C143.013 27.2964 141.891 28.2481 140.404 28.9489C138.917 29.6496 137.085 30 134.907 30H122.478ZM128.628 24.9716H133.642C135.356 24.9716 136.606 24.6449 137.392 23.9915C138.178 23.3286 138.571 22.4479 138.571 21.3494C138.571 20.5445 138.377 19.8343 137.989 19.2188C137.601 18.6032 137.047 18.1203 136.327 17.7699C135.617 17.4195 134.769 17.2443 133.784 17.2443H128.628V24.9716ZM128.628 13.0824H133.188C134.031 13.0824 134.779 12.9356 135.432 12.642C136.095 12.339 136.616 11.9129 136.995 11.3636C137.383 10.8144 137.577 10.1562 137.577 9.3892C137.577 8.33807 137.203 7.49053 136.455 6.84659C135.716 6.20265 134.665 5.88068 133.301 5.88068H128.628V13.0824ZM152.545 38.1818C151.778 38.1818 151.058 38.1203 150.386 37.9972C149.723 37.8835 149.174 37.7367 148.738 37.5568L150.102 33.0398C150.812 33.2576 151.451 33.3759 152.02 33.3949C152.597 33.4138 153.094 33.2813 153.511 32.9972C153.937 32.7131 154.283 32.2301 154.548 31.5483L154.903 30.625L147.076 8.18182H153.44L157.957 24.2045H158.184L162.744 8.18182H169.15L160.67 32.358C160.263 33.5322 159.709 34.5549 159.008 35.4261C158.317 36.3068 157.441 36.9839 156.38 37.4574C155.32 37.9403 154.041 38.1818 152.545 38.1818ZM183.852 8.18182V12.7273H170.713V8.18182H183.852ZM173.696 2.95455H179.747V23.2955C179.747 23.8542 179.832 24.2898 180.002 24.6023C180.173 24.9053 180.41 25.1184 180.713 25.2415C181.025 25.3646 181.385 25.4261 181.792 25.4261C182.076 25.4261 182.36 25.4025 182.645 25.3551C182.929 25.2983 183.146 25.2557 183.298 25.2273L184.25 29.7301C183.947 29.8248 183.52 29.9337 182.971 30.0568C182.422 30.1894 181.754 30.2699 180.968 30.2983C179.51 30.3551 178.232 30.161 177.133 29.7159C176.044 29.2708 175.197 28.5795 174.591 27.642C173.984 26.7045 173.686 25.5208 173.696 24.0909V2.95455ZM197.502 30.4261C195.258 30.4261 193.326 29.9716 191.707 29.0625C190.097 28.1439 188.857 26.8466 187.985 25.1705C187.114 23.4848 186.679 21.4915 186.679 19.1903C186.679 16.946 187.114 14.9763 187.985 13.2812C188.857 11.5862 190.083 10.2652 191.664 9.31818C193.255 8.37121 195.121 7.89773 197.261 7.89773C198.7 7.89773 200.04 8.12973 201.281 8.59375C202.531 9.0483 203.62 9.73485 204.548 10.6534C205.485 11.572 206.215 12.7273 206.735 14.1193C207.256 15.5019 207.517 17.1212 207.517 18.9773V20.6392H189.093V16.8892H201.821C201.821 16.018 201.631 15.2462 201.252 14.5739C200.874 13.9015 200.348 13.3759 199.676 12.9972C199.013 12.6089 198.241 12.4148 197.36 12.4148C196.442 12.4148 195.627 12.6278 194.917 13.054C194.217 13.4706 193.667 14.0341 193.27 14.7443C192.872 15.4451 192.668 16.2263 192.659 17.0881V20.6534C192.659 21.733 192.858 22.6657 193.255 23.4517C193.663 24.2377 194.235 24.8438 194.974 25.2699C195.713 25.696 196.589 25.9091 197.602 25.9091C198.274 25.9091 198.89 25.8144 199.449 25.625C200.007 25.4356 200.485 25.1515 200.883 24.7727C201.281 24.3939 201.584 23.9299 201.792 23.3807L207.389 23.75C207.105 25.0947 206.522 26.2689 205.642 27.2727C204.77 28.267 203.644 29.0436 202.261 29.6023C200.888 30.1515 199.302 30.4261 197.502 30.4261ZM229.619 14.4034L224.079 14.7443C223.984 14.2708 223.781 13.8447 223.468 13.4659C223.156 13.0777 222.744 12.7699 222.233 12.5426C221.731 12.3059 221.129 12.1875 220.429 12.1875C219.491 12.1875 218.7 12.3864 218.056 12.7841C217.413 13.1723 217.091 13.6932 217.091 14.3466C217.091 14.8674 217.299 15.3078 217.716 15.6676C218.132 16.0275 218.847 16.3163 219.86 16.5341L223.809 17.3295C225.931 17.7652 227.512 18.4659 228.554 19.4318C229.595 20.3977 230.116 21.6667 230.116 23.2386C230.116 24.6686 229.695 25.9233 228.852 27.0028C228.019 28.0824 226.873 28.9252 225.414 29.5312C223.966 30.1278 222.294 30.4261 220.4 30.4261C217.512 30.4261 215.211 29.8248 213.497 28.6222C211.792 27.41 210.793 25.7623 210.5 23.679L216.451 23.3665C216.631 24.2472 217.067 24.9195 217.758 25.3835C218.449 25.8381 219.335 26.0653 220.414 26.0653C221.475 26.0653 222.327 25.8617 222.971 25.4545C223.625 25.0379 223.956 24.5028 223.966 23.8494C223.956 23.3002 223.724 22.8504 223.27 22.5C222.815 22.1402 222.114 21.8655 221.167 21.6761L217.389 20.9233C215.258 20.4972 213.672 19.7585 212.63 18.7074C211.598 17.6562 211.082 16.3163 211.082 14.6875C211.082 13.286 211.461 12.0786 212.218 11.0653C212.985 10.0521 214.06 9.27083 215.443 8.72159C216.835 8.17235 218.464 7.89773 220.329 7.89773C223.085 7.89773 225.253 8.48011 226.835 9.64489C228.426 10.8097 229.354 12.3958 229.619 14.4034ZM26.6254 39.4545H29.2887L33.9194 50.7614H34.0898L38.7205 39.4545H41.3839V54H39.2958V43.4744H39.1609L34.8711 53.9787H33.1381L28.8484 43.4673H28.7134V54H26.6254V39.4545ZM47.5788 54.2415C46.8875 54.2415 46.2625 54.1136 45.7038 53.858C45.1451 53.5975 44.7024 53.2211 44.3757 52.7287C44.0537 52.2363 43.8928 51.6326 43.8928 50.9176C43.8928 50.3021 44.0111 49.7955 44.2479 49.3977C44.4846 49 44.8042 48.6851 45.2067 48.4531C45.6091 48.2211 46.0589 48.0459 46.5561 47.9276C47.0533 47.8092 47.5599 47.7192 48.076 47.6577C48.7294 47.5819 49.2597 47.5204 49.6669 47.473C50.0741 47.4209 50.37 47.3381 50.5547 47.2244C50.7393 47.1108 50.8317 46.9261 50.8317 46.6705V46.6207C50.8317 46.0005 50.6565 45.5199 50.3061 45.179C49.9605 44.8381 49.4444 44.6676 48.7578 44.6676C48.0429 44.6676 47.4794 44.8262 47.0675 45.1435C46.6603 45.456 46.3786 45.804 46.2223 46.1875L44.2266 45.733C44.4633 45.0701 44.8089 44.535 45.2635 44.1278C45.7228 43.7159 46.2507 43.4176 46.8473 43.233C47.4439 43.0436 48.0713 42.9489 48.7294 42.9489C49.165 42.9489 49.6267 43.0009 50.1143 43.1051C50.6068 43.2045 51.0661 43.3892 51.4922 43.6591C51.9231 43.929 52.2758 44.3149 52.5504 44.8168C52.825 45.3139 52.9624 45.9602 52.9624 46.7557V54H50.8885V52.5085H50.8033C50.666 52.7831 50.46 53.053 50.1854 53.3182C49.9107 53.5833 49.558 53.8035 49.1271 53.9787C48.6963 54.1539 48.1802 54.2415 47.5788 54.2415ZM48.0405 52.5369C48.6276 52.5369 49.1295 52.4209 49.5462 52.1889C49.9676 51.9569 50.2872 51.6539 50.505 51.2798C50.7275 50.901 50.8388 50.4962 50.8388 50.0653V48.6591C50.763 48.7348 50.6162 48.8059 50.3984 48.8722C50.1854 48.9337 49.9415 48.9882 49.6669 49.0355C49.3923 49.0781 49.1248 49.1184 48.8643 49.1562C48.6039 49.1894 48.3861 49.2178 48.2109 49.2415C47.799 49.2936 47.4226 49.3812 47.0817 49.5043C46.7455 49.6274 46.4756 49.8049 46.272 50.0369C46.0732 50.2642 45.9737 50.5672 45.9737 50.946C45.9737 51.4716 46.1679 51.8693 46.5561 52.1392C46.9444 52.4044 47.4392 52.5369 48.0405 52.5369ZM59.8746 54.2131C58.994 54.2131 58.208 53.9882 57.5167 53.5384C56.8301 53.0838 56.2904 52.4375 55.8974 51.5994C55.5091 50.7566 55.315 49.7457 55.315 48.5668C55.315 47.3878 55.5115 46.3793 55.9045 45.5412C56.3022 44.7031 56.8467 44.0616 57.538 43.6165C58.2293 43.1714 59.0129 42.9489 59.8888 42.9489C60.5659 42.9489 61.1104 43.0625 61.5224 43.2898C61.939 43.5123 62.261 43.7727 62.4883 44.071C62.7203 44.3693 62.9002 44.6321 63.0281 44.8594H63.1559V39.4545H65.2795V54H63.2056V52.3026H63.0281C62.9002 52.5346 62.7156 52.7997 62.4741 53.098C62.2373 53.3963 61.9106 53.6567 61.494 53.8793C61.0773 54.1018 60.5375 54.2131 59.8746 54.2131ZM60.3434 52.402C60.9542 52.402 61.4703 52.241 61.8917 51.919C62.3178 51.5923 62.6398 51.1402 62.8576 50.5625C63.0801 49.9848 63.1914 49.3125 63.1914 48.5455C63.1914 47.7879 63.0825 47.125 62.8647 46.5568C62.6469 45.9886 62.3273 45.5459 61.9059 45.2287C61.4845 44.9115 60.9637 44.7528 60.3434 44.7528C59.7042 44.7528 59.1715 44.9186 58.7454 45.25C58.3192 45.5814 57.9973 46.0336 57.7795 46.6065C57.5664 47.1795 57.4599 47.8258 57.4599 48.5455C57.4599 49.2746 57.5688 49.9304 57.7866 50.5128C58.0044 51.0952 58.3263 51.5568 58.7525 51.8977C59.1834 52.2339 59.7137 52.402 60.3434 52.402ZM73.0121 54.2202C71.9373 54.2202 71.0116 53.9905 70.2351 53.5312C69.4633 53.0672 68.8667 52.4162 68.4453 51.5781C68.0286 50.7353 67.8203 49.7481 67.8203 48.6165C67.8203 47.4991 68.0286 46.5142 68.4453 45.6619C68.8667 44.8097 69.4538 44.1444 70.2067 43.6662C70.9643 43.188 71.8497 42.9489 72.8629 42.9489C73.4785 42.9489 74.075 43.0507 74.6527 43.2543C75.2304 43.4579 75.7488 43.7775 76.2081 44.2131C76.6674 44.6487 77.0296 45.2145 77.2947 45.9105C77.5599 46.6018 77.6925 47.4422 77.6925 48.4318V49.1847H69.0206V47.5938H75.6115C75.6115 47.035 75.4979 46.5402 75.2706 46.1094C75.0433 45.6738 74.7237 45.3305 74.3118 45.0795C73.9046 44.8286 73.4264 44.7031 72.8771 44.7031C72.2805 44.7031 71.7597 44.8499 71.3146 45.1435C70.8743 45.4323 70.5334 45.8111 70.2919 46.2798C70.0552 46.7438 69.9368 47.2481 69.9368 47.7926V49.0355C69.9368 49.7647 70.0646 50.3849 70.3203 50.8963C70.5807 51.4077 70.9429 51.7983 71.407 52.0682C71.871 52.3333 72.4131 52.4659 73.0334 52.4659C73.4358 52.4659 73.8028 52.4091 74.1342 52.2955C74.4657 52.1771 74.7521 52.0019 74.9936 51.7699C75.2351 51.5379 75.4197 51.2514 75.5476 50.9105L77.5575 51.2727C77.3965 51.8646 77.1077 52.383 76.6911 52.8281C76.2791 53.2685 75.7607 53.6117 75.1357 53.858C74.5154 54.0994 73.8075 54.2202 73.0121 54.2202ZM87.7067 54L84.4964 43.0909H86.6911L88.8288 51.1023H88.9354L91.0803 43.0909H93.2749L95.4055 51.0668H95.5121L97.6357 43.0909H99.8303L96.6271 54H94.4609L92.245 46.1236H92.0817L89.8658 54H87.7067ZM101.846 54V43.0909H103.969V54H101.846ZM102.918 41.4077C102.549 41.4077 102.231 41.2846 101.966 41.0384C101.706 40.7874 101.576 40.4891 101.576 40.1435C101.576 39.7931 101.706 39.4948 101.966 39.2486C102.231 38.9976 102.549 38.8722 102.918 38.8722C103.287 38.8722 103.602 38.9976 103.863 39.2486C104.128 39.4948 104.26 39.7931 104.26 40.1435C104.26 40.4891 104.128 40.7874 103.863 41.0384C103.602 41.2846 103.287 41.4077 102.918 41.4077ZM111.918 43.0909V44.7955H105.96V43.0909H111.918ZM107.558 40.4773H109.681V50.7969C109.681 51.2088 109.743 51.5189 109.866 51.7273C109.989 51.9309 110.147 52.0705 110.342 52.1463C110.54 52.2173 110.756 52.2528 110.988 52.2528C111.158 52.2528 111.308 52.241 111.435 52.2173C111.563 52.1937 111.663 52.1747 111.734 52.1605L112.117 53.9148C111.994 53.9621 111.819 54.0095 111.592 54.0568C111.364 54.1089 111.08 54.1373 110.739 54.142C110.181 54.1515 109.66 54.0521 109.177 53.8438C108.694 53.6354 108.303 53.3134 108.005 52.8778C107.707 52.4422 107.558 51.8954 107.558 51.2372V40.4773ZM116.625 47.5227V54H114.502V39.4545H116.597V44.8665H116.732C116.988 44.2794 117.378 43.813 117.904 43.4673C118.429 43.1217 119.116 42.9489 119.963 42.9489C120.712 42.9489 121.365 43.1027 121.924 43.4105C122.487 43.7183 122.923 44.1776 123.23 44.7884C123.543 45.3944 123.699 46.152 123.699 47.0611V54H121.576V47.3168C121.576 46.5166 121.37 45.8963 120.958 45.456C120.546 45.0109 119.973 44.7884 119.239 44.7884C118.737 44.7884 118.287 44.8949 117.89 45.108C117.497 45.321 117.186 45.6335 116.959 46.0455C116.737 46.4527 116.625 46.9451 116.625 47.5227ZM131.996 54V39.4545H141.016V41.3438H134.191V45.7756H140.37V47.6577H134.191V54H131.996ZM143.545 54V43.0909H145.668V54H143.545ZM144.617 41.4077C144.248 41.4077 143.931 41.2846 143.665 41.0384C143.405 40.7874 143.275 40.4891 143.275 40.1435C143.275 39.7931 143.405 39.4948 143.665 39.2486C143.931 38.9976 144.248 38.8722 144.617 38.8722C144.987 38.8722 145.301 38.9976 145.562 39.2486C145.827 39.4948 145.96 39.7931 145.96 40.1435C145.96 40.4891 145.827 40.7874 145.562 41.0384C145.301 41.2846 144.987 41.4077 144.617 41.4077ZM150.649 47.5227V54H148.525V43.0909H150.564V44.8665H150.699C150.949 44.2888 151.342 43.8248 151.877 43.4744C152.417 43.1241 153.097 42.9489 153.916 42.9489C154.659 42.9489 155.31 43.1051 155.869 43.4176C156.428 43.7254 156.861 44.1847 157.169 44.7955C157.476 45.4062 157.63 46.1615 157.63 47.0611V54H155.507V47.3168C155.507 46.526 155.301 45.9081 154.889 45.4631C154.477 45.0133 153.911 44.7884 153.191 44.7884C152.699 44.7884 152.261 44.8949 151.877 45.108C151.499 45.321 151.198 45.6335 150.975 46.0455C150.758 46.4527 150.649 46.9451 150.649 47.5227ZM165.18 54.2202C164.105 54.2202 163.18 53.9905 162.403 53.5312C161.631 53.0672 161.035 52.4162 160.613 51.5781C160.197 50.7353 159.988 49.7481 159.988 48.6165C159.988 47.4991 160.197 46.5142 160.613 45.6619C161.035 44.8097 161.622 44.1444 162.375 43.6662C163.132 43.188 164.018 42.9489 165.031 42.9489C165.646 42.9489 166.243 43.0507 166.821 43.2543C167.398 43.4579 167.917 43.7775 168.376 44.2131C168.835 44.6487 169.198 45.2145 169.463 45.9105C169.728 46.6018 169.86 47.4422 169.86 48.4318V49.1847H161.189V47.5938H167.779C167.779 47.035 167.666 46.5402 167.439 46.1094C167.211 45.6738 166.892 45.3305 166.48 45.0795C166.073 44.8286 165.594 44.7031 165.045 44.7031C164.449 44.7031 163.928 44.8499 163.483 45.1435C163.042 45.4323 162.701 45.8111 162.46 46.2798C162.223 46.7438 162.105 47.2481 162.105 47.7926V49.0355C162.105 49.7647 162.233 50.3849 162.488 50.8963C162.749 51.4077 163.111 51.7983 163.575 52.0682C164.039 52.3333 164.581 52.4659 165.201 52.4659C165.604 52.4659 165.971 52.4091 166.302 52.2955C166.634 52.1771 166.92 52.0019 167.162 51.7699C167.403 51.5379 167.588 51.2514 167.716 50.9105L169.725 51.2727C169.565 51.8646 169.276 52.383 168.859 52.8281C168.447 53.2685 167.929 53.6117 167.304 53.858C166.683 54.0994 165.975 54.2202 165.18 54.2202ZM180.391 45.7543L178.467 46.0952C178.386 45.849 178.258 45.6146 178.083 45.392C177.913 45.1695 177.681 44.9872 177.387 44.8452C177.094 44.7031 176.727 44.6321 176.286 44.6321C175.685 44.6321 175.183 44.767 174.781 45.0369C174.378 45.3021 174.177 45.6454 174.177 46.0668C174.177 46.4313 174.312 46.7249 174.582 46.9474C174.852 47.17 175.287 47.3523 175.888 47.4943L177.621 47.892C178.625 48.1241 179.373 48.4815 179.866 48.9645C180.358 49.4474 180.604 50.0748 180.604 50.8466C180.604 51.5 180.415 52.0824 180.036 52.5938C179.662 53.1004 179.139 53.4981 178.467 53.7869C177.799 54.0758 177.025 54.2202 176.144 54.2202C174.923 54.2202 173.926 53.9598 173.154 53.4389C172.382 52.9134 171.909 52.1676 171.734 51.2017L173.786 50.8892C173.914 51.4242 174.177 51.8291 174.575 52.1037C174.972 52.3736 175.491 52.5085 176.13 52.5085C176.826 52.5085 177.382 52.3641 177.799 52.0753C178.216 51.7817 178.424 51.4242 178.424 51.0028C178.424 50.6619 178.296 50.3755 178.04 50.1435C177.79 49.9115 177.404 49.7363 176.883 49.6179L175.036 49.2131C174.018 48.9811 173.265 48.6117 172.778 48.1051C172.295 47.5985 172.053 46.9569 172.053 46.1804C172.053 45.5365 172.233 44.973 172.593 44.4901C172.953 44.0071 173.45 43.6307 174.085 43.3608C174.719 43.0862 175.446 42.9489 176.265 42.9489C177.444 42.9489 178.372 43.2045 179.049 43.7159C179.726 44.2225 180.174 44.902 180.391 45.7543ZM191.114 45.7543L189.189 46.0952C189.109 45.849 188.981 45.6146 188.806 45.392C188.635 45.1695 188.403 44.9872 188.11 44.8452C187.816 44.7031 187.449 44.6321 187.009 44.6321C186.408 44.6321 185.906 44.767 185.503 45.0369C185.101 45.3021 184.9 45.6454 184.9 46.0668C184.9 46.4313 185.034 46.7249 185.304 46.9474C185.574 47.17 186.01 47.3523 186.611 47.4943L188.344 47.892C189.348 48.1241 190.096 48.4815 190.588 48.9645C191.081 49.4474 191.327 50.0748 191.327 50.8466C191.327 51.5 191.138 52.0824 190.759 52.5938C190.385 53.1004 189.862 53.4981 189.189 53.7869C188.522 54.0758 187.748 54.2202 186.867 54.2202C185.645 54.2202 184.649 53.9598 183.877 53.4389C183.105 52.9134 182.632 52.1676 182.456 51.2017L184.509 50.8892C184.637 51.4242 184.9 51.8291 185.297 52.1037C185.695 52.3736 186.213 52.5085 186.853 52.5085C187.549 52.5085 188.105 52.3641 188.522 52.0753C188.938 51.7817 189.147 51.4242 189.147 51.0028C189.147 50.6619 189.019 50.3755 188.763 50.1435C188.512 49.9115 188.126 49.7363 187.605 49.6179L185.759 49.2131C184.741 48.9811 183.988 48.6117 183.5 48.1051C183.017 47.5985 182.776 46.9569 182.776 46.1804C182.776 45.5365 182.956 44.973 183.316 44.4901C183.676 44.0071 184.173 43.6307 184.807 43.3608C185.442 43.0862 186.168 42.9489 186.988 42.9489C188.167 42.9489 189.095 43.2045 189.772 43.7159C190.449 44.2225 190.896 44.902 191.114 45.7543ZM198.364 54.2202C197.289 54.2202 196.363 53.9905 195.587 53.5312C194.815 53.0672 194.218 52.4162 193.797 51.5781C193.38 50.7353 193.172 49.7481 193.172 48.6165C193.172 47.4991 193.38 46.5142 193.797 45.6619C194.218 44.8097 194.805 44.1444 195.558 43.6662C196.316 43.188 197.201 42.9489 198.214 42.9489C198.83 42.9489 199.427 43.0507 200.004 43.2543C200.582 43.4579 201.1 43.7775 201.56 44.2131C202.019 44.6487 202.381 45.2145 202.646 45.9105C202.911 46.6018 203.044 47.4422 203.044 48.4318V49.1847H194.372V47.5938H200.963C200.963 47.035 200.849 46.5402 200.622 46.1094C200.395 45.6738 200.075 45.3305 199.663 45.0795C199.256 44.8286 198.778 44.7031 198.229 44.7031C197.632 44.7031 197.111 44.8499 196.666 45.1435C196.226 45.4323 195.885 45.8111 195.643 46.2798C195.407 46.7438 195.288 47.2481 195.288 47.7926V49.0355C195.288 49.7647 195.416 50.3849 195.672 50.8963C195.932 51.4077 196.295 51.7983 196.759 52.0682C197.223 52.3333 197.765 52.4659 198.385 52.4659C198.787 52.4659 199.154 52.4091 199.486 52.2955C199.817 52.1771 200.104 52.0019 200.345 51.7699C200.587 51.5379 200.771 51.2514 200.899 50.9105L202.909 51.2727C202.748 51.8646 202.459 52.383 202.043 52.8281C201.631 53.2685 201.112 53.6117 200.487 53.858C199.867 54.0994 199.159 54.2202 198.364 54.2202Z" fill="#747474"/>
</svg>
