<svg width="229" height="38" viewBox="0 0 229 38" fill="none" xmlns="http://www.w3.org/2000/svg">
<path d="M8.06676 37H0.157671L12.2088 2.09091H21.7202L33.7543 37H25.8452L17.1009 10.0682H16.8281L8.06676 37ZM7.57244 23.2784H26.2543V29.0398H7.57244V23.2784ZM45.2855 37.4943C43.6151 37.4943 42.1264 37.2045 40.8196 36.625C39.5128 36.0341 38.4787 35.1648 37.7173 34.017C36.9673 32.858 36.5923 31.4148 36.5923 29.6875C36.5923 28.233 36.8594 27.0114 37.3935 26.0227C37.9276 25.0341 38.6548 24.2386 39.5753 23.6364C40.4957 23.0341 41.5412 22.5795 42.7116 22.2727C43.8935 21.9659 45.1321 21.75 46.4276 21.625C47.9503 21.4659 49.1776 21.3182 50.1094 21.1818C51.0412 21.0341 51.7173 20.8182 52.1378 20.5341C52.5582 20.25 52.7685 19.8295 52.7685 19.2727V19.1705C52.7685 18.0909 52.4276 17.2557 51.7457 16.6648C51.0753 16.0739 50.1207 15.7784 48.8821 15.7784C47.5753 15.7784 46.5355 16.0682 45.7628 16.6477C44.9901 17.2159 44.4787 17.9318 44.2287 18.7955L37.5128 18.25C37.8537 16.6591 38.5241 15.2841 39.5241 14.125C40.5241 12.9545 41.8139 12.0568 43.3935 11.4318C44.9844 10.7955 46.8253 10.4773 48.9162 10.4773C50.3707 10.4773 51.7628 10.6477 53.0923 10.9886C54.4332 11.3295 55.6207 11.858 56.6548 12.5739C57.7003 13.2898 58.5241 14.2102 59.1264 15.3352C59.7287 16.4489 60.0298 17.7841 60.0298 19.3409V37H53.1435V33.3693H52.9389C52.5185 34.1875 51.956 34.9091 51.2514 35.5341C50.5469 36.1477 49.7003 36.6307 48.7116 36.983C47.723 37.3239 46.581 37.4943 45.2855 37.4943ZM47.3651 32.483C48.4332 32.483 49.3764 32.2727 50.1946 31.8523C51.0128 31.4205 51.6548 30.8409 52.1207 30.1136C52.5866 29.3864 52.8196 28.5625 52.8196 27.642V24.8636C52.5923 25.0114 52.2798 25.1477 51.8821 25.2727C51.4957 25.3864 51.0582 25.4943 50.5696 25.5966C50.081 25.6875 49.5923 25.7727 49.1037 25.8523C48.6151 25.9205 48.1719 25.983 47.7741 26.0398C46.9219 26.1648 46.1776 26.3636 45.5412 26.6364C44.9048 26.9091 44.4105 27.2784 44.0582 27.7443C43.706 28.1989 43.5298 28.767 43.5298 29.4489C43.5298 30.4375 43.8878 31.1932 44.6037 31.7159C45.331 32.2273 46.2514 32.483 47.3651 32.483ZM72.9247 21.8636V37H65.6634V2.09091H72.7202V15.4375H73.027C73.6179 13.892 74.5724 12.6818 75.8906 11.8068C77.2088 10.9205 78.8622 10.4773 80.8509 10.4773C82.669 10.4773 84.2543 10.875 85.6065 11.6705C86.9702 12.4545 88.027 13.5852 88.777 15.0625C89.5384 16.5284 89.9134 18.2841 89.902 20.3295V37H82.6406V21.625C82.652 20.0114 82.2429 18.7557 81.4134 17.858C80.5952 16.9602 79.4474 16.5114 77.9702 16.5114C76.9815 16.5114 76.1065 16.7216 75.3452 17.142C74.5952 17.5625 74.0043 18.1761 73.5724 18.983C73.152 19.7784 72.9361 20.7386 72.9247 21.8636ZM95.6165 37V10.8182H102.656V15.3864H102.929C103.406 13.7614 104.207 12.5341 105.332 11.7045C106.457 10.8636 107.753 10.4432 109.219 10.4432C109.582 10.4432 109.974 10.4659 110.395 10.5114C110.815 10.5568 111.185 10.6193 111.503 10.6989V17.142C111.162 17.0398 110.69 16.9489 110.088 16.8693C109.486 16.7898 108.935 16.75 108.435 16.75C107.366 16.75 106.412 16.983 105.571 17.4489C104.741 17.9034 104.082 18.5398 103.594 19.358C103.116 20.1761 102.878 21.1193 102.878 22.1875V37H95.6165ZM115.393 37V2.09091H122.655V15.2159H122.876C123.195 14.5114 123.655 13.7955 124.257 13.0682C124.871 12.3295 125.666 11.7159 126.643 11.2273C127.632 10.7273 128.859 10.4773 130.325 10.4773C132.234 10.4773 133.996 10.9773 135.609 11.9773C137.223 12.9659 138.513 14.4602 139.479 16.4602C140.445 18.4489 140.928 20.9432 140.928 23.9432C140.928 26.8636 140.456 29.3295 139.513 31.3409C138.581 33.3409 137.308 34.858 135.695 35.892C134.092 36.9148 132.297 37.4261 130.308 37.4261C128.899 37.4261 127.7 37.1932 126.712 36.7273C125.734 36.2614 124.933 35.6761 124.308 34.9716C123.683 34.2557 123.206 33.5341 122.876 32.8068H122.553V37H115.393ZM122.501 23.9091C122.501 25.4659 122.717 26.8239 123.149 27.983C123.581 29.142 124.206 30.0455 125.024 30.6932C125.842 31.3295 126.837 31.6477 128.007 31.6477C129.189 31.6477 130.189 31.3239 131.007 30.6761C131.825 30.017 132.445 29.108 132.865 27.9489C133.297 26.7784 133.513 25.4318 133.513 23.9091C133.513 22.3977 133.303 21.0682 132.882 19.9205C132.462 18.7727 131.842 17.875 131.024 17.2273C130.206 16.5795 129.2 16.2557 128.007 16.2557C126.825 16.2557 125.825 16.5682 125.007 17.1932C124.2 17.8182 123.581 18.7045 123.149 19.8523C122.717 21 122.501 22.3523 122.501 23.9091ZM145.773 37V10.8182H153.034V37H145.773ZM149.42 7.44318C148.341 7.44318 147.415 7.08523 146.642 6.36932C145.881 5.64204 145.5 4.77273 145.5 3.76136C145.5 2.76136 145.881 1.90341 146.642 1.1875C147.415 0.460226 148.341 0.0965891 149.42 0.0965891C150.5 0.0965891 151.42 0.460226 152.182 1.1875C152.955 1.90341 153.341 2.76136 153.341 3.76136C153.341 4.77273 152.955 5.64204 152.182 6.36932C151.42 7.08523 150.5 7.44318 149.42 7.44318ZM172.777 10.8182V16.2727H157.01V10.8182H172.777ZM160.589 4.54545H167.851V28.9545C167.851 29.625 167.953 30.1477 168.158 30.5227C168.362 30.8864 168.646 31.142 169.01 31.2898C169.385 31.4375 169.817 31.5114 170.305 31.5114C170.646 31.5114 170.987 31.483 171.328 31.4261C171.669 31.358 171.93 31.3068 172.112 31.2727L173.254 36.6761C172.891 36.7898 172.379 36.9205 171.72 37.0682C171.061 37.2273 170.26 37.3239 169.317 37.358C167.567 37.4261 166.033 37.1932 164.714 36.6591C163.408 36.125 162.391 35.2955 161.663 34.1705C160.936 33.0455 160.578 31.625 160.589 29.9091V4.54545ZM184.564 2.09091L191.604 13.9886H191.876L198.95 2.09091H207.286L196.632 19.5455L207.524 37H199.036L191.876 25.0852H191.604L184.445 37H175.99L186.916 19.5455L176.195 2.09091H184.564ZM219.95 18.608C218.405 18.608 216.996 18.233 215.723 17.483C214.462 16.7216 213.456 15.7102 212.706 14.4489C211.956 13.1761 211.581 11.767 211.581 10.2216C211.581 8.6875 211.956 7.28977 212.706 6.02841C213.456 4.75568 214.462 3.74432 215.723 2.99432C216.996 2.23295 218.405 1.85227 219.95 1.85227C221.496 1.85227 222.899 2.23295 224.161 2.99432C225.433 3.74432 226.445 4.75568 227.195 6.02841C227.945 7.28977 228.32 8.6875 228.32 10.2216C228.32 11.767 227.945 13.1761 227.195 14.4489C226.445 15.7102 225.433 16.7216 224.161 17.483C222.899 18.233 221.496 18.608 219.95 18.608ZM219.95 13.767C220.609 13.767 221.206 13.608 221.74 13.2898C222.274 12.9716 222.695 12.5455 223.001 12.0114C223.32 11.4773 223.479 10.8807 223.479 10.2216C223.479 9.57386 223.32 8.98295 223.001 8.44886C222.695 7.91477 222.274 7.48864 221.74 7.17045C221.206 6.85227 220.609 6.69318 219.95 6.69318C219.303 6.69318 218.712 6.85227 218.178 7.17045C217.643 7.48864 217.217 7.91477 216.899 8.44886C216.581 8.98295 216.422 9.57386 216.422 10.2216C216.422 10.8807 216.581 11.4773 216.899 12.0114C217.217 12.5455 217.643 12.9716 218.178 13.2898C218.712 13.608 219.303 13.767 219.95 13.767Z" fill="#747474"/>
</svg>
