<svg width="555" height="71" viewBox="0 0 555 71" fill="none" xmlns="http://www.w3.org/2000/svg">
<path d="M0.143466 36V1.09091H7.52415V29.9148H22.4901V36H0.143466ZM48.9403 1.09091H56.321V23.7614C56.321 26.3068 55.7131 28.5341 54.4972 30.4432C53.2926 32.3523 51.6051 33.8409 49.4347 34.9091C47.2642 35.9659 44.7358 36.4943 41.8494 36.4943C38.9517 36.4943 36.4176 35.9659 34.2472 34.9091C32.0767 33.8409 30.3892 32.3523 29.1847 30.4432C27.9801 28.5341 27.3778 26.3068 27.3778 23.7614V1.09091H34.7585V23.1307C34.7585 24.4602 35.0483 25.642 35.6278 26.6761C36.2188 27.7102 37.0483 28.5227 38.1165 29.1136C39.1847 29.7045 40.429 30 41.8494 30C43.2813 30 44.5256 29.7045 45.5824 29.1136C46.6506 28.5227 47.4744 27.7102 48.054 26.6761C48.6449 25.642 48.9403 24.4602 48.9403 23.1307V1.09091ZM62.3935 36V1.09091H76.1662C78.8026 1.09091 81.0526 1.5625 82.9162 2.50568C84.7912 3.4375 86.2173 4.76136 87.1946 6.47727C88.1832 8.18182 88.6776 10.1875 88.6776 12.4943C88.6776 14.8125 88.1776 16.8068 87.1776 18.4773C86.1776 20.1364 84.7287 21.4091 82.831 22.2955C80.9446 23.1818 78.6605 23.625 75.9787 23.625H66.7571V17.6932H74.7855C76.1946 17.6932 77.3651 17.5 78.2969 17.1136C79.2287 16.7273 79.9219 16.1477 80.3764 15.375C80.8423 14.6023 81.0753 13.642 81.0753 12.4943C81.0753 11.3352 80.8423 10.358 80.3764 9.5625C79.9219 8.76704 79.223 8.16477 78.2798 7.75568C77.348 7.33523 76.1719 7.125 74.7514 7.125H69.7741V36H62.3935ZM81.2457 20.1136L89.9219 36H81.7741L73.2855 20.1136H81.2457ZM93.8935 36V1.09091H117.416V7.17614H101.274V15.4943H116.206V21.5795H101.274V29.9148H117.484V36H93.8935ZM133.064 7.17614V1.09091H161.734V7.17614H151.047V36H143.751V7.17614H133.064ZM166.456 36V1.09091H189.979V7.17614H173.837V15.4943H188.768V21.5795H173.837V29.9148H190.047V36H166.456ZM226.648 13.3125H219.182C219.045 12.3466 218.767 11.4886 218.347 10.7386C217.926 9.97727 217.386 9.32954 216.727 8.79545C216.068 8.26136 215.307 7.85227 214.443 7.56818C213.591 7.28409 212.665 7.14205 211.665 7.14205C209.858 7.14205 208.284 7.59091 206.943 8.48864C205.602 9.375 204.563 10.6705 203.824 12.375C203.085 14.0682 202.716 16.125 202.716 18.5455C202.716 21.0341 203.085 23.125 203.824 24.8182C204.574 26.5114 205.619 27.7898 206.96 28.6534C208.301 29.517 209.852 29.9489 211.614 29.9489C212.602 29.9489 213.517 29.8182 214.358 29.5568C215.21 29.2955 215.966 28.9148 216.625 28.4148C217.284 27.9034 217.83 27.2841 218.261 26.5568C218.705 25.8295 219.011 25 219.182 24.0682L226.648 24.1023C226.455 25.7045 225.972 27.25 225.199 28.7386C224.438 30.2159 223.409 31.5398 222.114 32.7102C220.83 33.8693 219.295 34.7898 217.511 35.4716C215.739 36.142 213.733 36.4773 211.494 36.4773C208.381 36.4773 205.597 35.7727 203.142 34.3636C200.699 32.9545 198.767 30.9148 197.347 28.2443C195.938 25.5739 195.233 22.3409 195.233 18.5455C195.233 14.7386 195.949 11.5 197.381 8.82955C198.813 6.15909 200.756 4.125 203.21 2.72727C205.665 1.31818 208.426 0.613635 211.494 0.613635C213.517 0.613635 215.392 0.897726 217.119 1.46591C218.858 2.03409 220.398 2.86364 221.739 3.95454C223.08 5.03409 224.17 6.35795 225.011 7.92614C225.864 9.49432 226.409 11.2898 226.648 13.3125ZM231.94 36V1.09091H239.321V15.4943H254.304V1.09091H261.668V36H254.304V21.5795H239.321V36H231.94ZM297.8 11.1307C297.663 9.75568 297.078 8.6875 296.044 7.92614C295.01 7.16477 293.607 6.78409 291.834 6.78409C290.629 6.78409 289.612 6.95454 288.783 7.29545C287.953 7.625 287.317 8.08523 286.874 8.67614C286.442 9.26705 286.226 9.9375 286.226 10.6875C286.203 11.3125 286.334 11.858 286.618 12.3239C286.913 12.7898 287.317 13.1932 287.828 13.5341C288.339 13.8636 288.93 14.1534 289.601 14.4034C290.271 14.642 290.987 14.8466 291.749 15.017L294.885 15.767C296.408 16.108 297.805 16.5625 299.078 17.1307C300.351 17.6989 301.453 18.3977 302.385 19.2273C303.317 20.0568 304.038 21.0341 304.55 22.1591C305.072 23.2841 305.339 24.5739 305.351 26.0284C305.339 28.1648 304.794 30.017 303.714 31.5852C302.646 33.142 301.101 34.3523 299.078 35.2159C297.067 36.0682 294.641 36.4943 291.8 36.4943C288.982 36.4943 286.527 36.0625 284.436 35.1989C282.357 34.3352 280.732 33.0568 279.561 31.3636C278.402 29.6591 277.794 27.5511 277.737 25.0398H284.879C284.959 26.2102 285.294 27.1875 285.885 27.9716C286.487 28.7443 287.288 29.3295 288.288 29.7273C289.3 30.1136 290.442 30.3068 291.714 30.3068C292.964 30.3068 294.05 30.125 294.97 29.7614C295.902 29.3977 296.624 28.892 297.135 28.2443C297.646 27.5966 297.902 26.8523 297.902 26.0114C297.902 25.2273 297.669 24.5682 297.203 24.0341C296.749 23.5 296.078 23.0455 295.192 22.6705C294.317 22.2955 293.243 21.9545 291.97 21.6477L288.169 20.6932C285.226 19.9773 282.902 18.858 281.197 17.3352C279.493 15.8125 278.646 13.7614 278.658 11.1818C278.646 9.06818 279.209 7.22159 280.345 5.64205C281.493 4.0625 283.067 2.82955 285.067 1.94318C287.067 1.05682 289.339 0.613635 291.885 0.613635C294.476 0.613635 296.737 1.05682 298.669 1.94318C300.612 2.82955 302.124 4.0625 303.203 5.64205C304.283 7.22159 304.839 9.05114 304.874 11.1307H297.8ZM342.395 18.5455C342.395 22.3523 341.673 25.5909 340.23 28.2614C338.798 30.9318 336.844 32.9716 334.366 34.3807C331.901 35.7784 329.128 36.4773 326.048 36.4773C322.946 36.4773 320.162 35.7727 317.696 34.3636C315.23 32.9545 313.281 30.9148 311.849 28.2443C310.418 25.5739 309.702 22.3409 309.702 18.5455C309.702 14.7386 310.418 11.5 311.849 8.82955C313.281 6.15909 315.23 4.125 317.696 2.72727C320.162 1.31818 322.946 0.613635 326.048 0.613635C329.128 0.613635 331.901 1.31818 334.366 2.72727C336.844 4.125 338.798 6.15909 340.23 8.82955C341.673 11.5 342.395 14.7386 342.395 18.5455ZM334.912 18.5455C334.912 16.0795 334.543 14 333.804 12.3068C333.077 10.6136 332.048 9.32955 330.719 8.45455C329.389 7.57955 327.832 7.14205 326.048 7.14205C324.264 7.14205 322.707 7.57955 321.378 8.45455C320.048 9.32955 319.014 10.6136 318.276 12.3068C317.548 14 317.185 16.0795 317.185 18.5455C317.185 21.0114 317.548 23.0909 318.276 24.7841C319.014 26.4773 320.048 27.7614 321.378 28.6364C322.707 29.5114 324.264 29.9489 326.048 29.9489C327.832 29.9489 329.389 29.5114 330.719 28.6364C332.048 27.7614 333.077 26.4773 333.804 24.7841C334.543 23.0909 334.912 21.0114 334.912 18.5455ZM347.862 36V1.09091H355.243V29.9148H370.209V36H347.862ZM396.659 1.09091H404.04V23.7614C404.04 26.3068 403.432 28.5341 402.216 30.4432C401.011 32.3523 399.324 33.8409 397.153 34.9091C394.983 35.9659 392.455 36.4943 389.568 36.4943C386.67 36.4943 384.136 35.9659 381.966 34.9091C379.795 33.8409 378.108 32.3523 376.903 30.4432C375.699 28.5341 375.097 26.3068 375.097 23.7614V1.09091H382.477V23.1307C382.477 24.4602 382.767 25.642 383.347 26.6761C383.938 27.7102 384.767 28.5227 385.835 29.1136C386.903 29.7045 388.148 30 389.568 30C391 30 392.244 29.7045 393.301 29.1136C394.369 28.5227 395.193 27.7102 395.773 26.6761C396.364 25.642 396.659 24.4602 396.659 23.1307V1.09091ZM408.783 7.17614V1.09091H437.453V7.17614H426.766V36H419.47V7.17614H408.783ZM449.555 1.09091V36H442.175V1.09091H449.555ZM487.707 18.5455C487.707 22.3523 486.986 25.5909 485.543 28.2614C484.111 30.9318 482.156 32.9716 479.679 34.3807C477.213 35.7784 474.44 36.4773 471.361 36.4773C468.259 36.4773 465.474 35.7727 463.009 34.3636C460.543 32.9545 458.594 30.9148 457.162 28.2443C455.73 25.5739 455.014 22.3409 455.014 18.5455C455.014 14.7386 455.73 11.5 457.162 8.82955C458.594 6.15909 460.543 4.125 463.009 2.72727C465.474 1.31818 468.259 0.613635 471.361 0.613635C474.44 0.613635 477.213 1.31818 479.679 2.72727C482.156 4.125 484.111 6.15909 485.543 8.82955C486.986 11.5 487.707 14.7386 487.707 18.5455ZM480.224 18.5455C480.224 16.0795 479.855 14 479.116 12.3068C478.389 10.6136 477.361 9.32955 476.031 8.45455C474.702 7.57955 473.145 7.14205 471.361 7.14205C469.577 7.14205 468.02 7.57955 466.69 8.45455C465.361 9.32955 464.327 10.6136 463.588 12.3068C462.861 14 462.497 16.0795 462.497 18.5455C462.497 21.0114 462.861 23.0909 463.588 24.7841C464.327 26.4773 465.361 27.7614 466.69 28.6364C468.02 29.5114 469.577 29.9489 471.361 29.9489C473.145 29.9489 474.702 29.5114 476.031 28.6364C477.361 27.7614 478.389 26.4773 479.116 24.7841C479.855 23.0909 480.224 21.0114 480.224 18.5455ZM522.374 1.09091V36H515.999L500.811 14.0284H500.555V36H493.175V1.09091H499.652L514.72 23.0455H515.027V1.09091H522.374ZM547.409 11.1307C547.273 9.75568 546.688 8.6875 545.653 7.92614C544.619 7.16477 543.216 6.78409 541.443 6.78409C540.239 6.78409 539.222 6.95454 538.392 7.29545C537.563 7.625 536.926 8.08523 536.483 8.67614C536.051 9.26705 535.835 9.9375 535.835 10.6875C535.813 11.3125 535.943 11.858 536.227 12.3239C536.523 12.7898 536.926 13.1932 537.438 13.5341C537.949 13.8636 538.54 14.1534 539.21 14.4034C539.881 14.642 540.597 14.8466 541.358 15.017L544.494 15.767C546.017 16.108 547.415 16.5625 548.688 17.1307C549.96 17.6989 551.063 18.3977 551.994 19.2273C552.926 20.0568 553.648 21.0341 554.159 22.1591C554.682 23.2841 554.949 24.5739 554.96 26.0284C554.949 28.1648 554.403 30.017 553.324 31.5852C552.256 33.142 550.71 34.3523 548.688 35.2159C546.676 36.0682 544.25 36.4943 541.409 36.4943C538.591 36.4943 536.136 36.0625 534.045 35.1989C531.966 34.3352 530.341 33.0568 529.17 31.3636C528.011 29.6591 527.403 27.5511 527.347 25.0398H534.489C534.568 26.2102 534.903 27.1875 535.494 27.9716C536.097 28.7443 536.898 29.3295 537.898 29.7273C538.909 30.1136 540.051 30.3068 541.324 30.3068C542.574 30.3068 543.659 30.125 544.58 29.7614C545.511 29.3977 546.233 28.892 546.744 28.2443C547.256 27.5966 547.511 26.8523 547.511 26.0114C547.511 25.2273 547.278 24.5682 546.812 24.0341C546.358 23.5 545.688 23.0455 544.801 22.6705C543.926 22.2955 542.852 21.9545 541.58 21.6477L537.778 20.6932C534.835 19.9773 532.511 18.858 530.807 17.3352C529.102 15.8125 528.256 13.7614 528.267 11.1818C528.256 9.06818 528.818 7.22159 529.955 5.64205C531.102 4.0625 532.676 2.82955 534.676 1.94318C536.676 1.05682 538.949 0.613635 541.494 0.613635C544.085 0.613635 546.347 1.05682 548.278 1.94318C550.222 2.82955 551.733 4.0625 552.812 5.64205C553.892 7.22159 554.449 9.05114 554.483 11.1307H547.409ZM166.26 65L162.271 51.9091H164.385L167.214 61.9318H167.351L170.146 51.9091H172.294L175.055 61.8977H175.192L178.021 51.9091H180.135L176.146 65H174.169L171.305 54.9432H171.101L168.237 65H166.26ZM187.837 65.2727C186.576 65.2727 185.488 64.9943 184.573 64.4375C183.664 63.875 182.962 63.0909 182.468 62.0852C181.979 61.0739 181.735 59.8977 181.735 58.5568C181.735 57.2159 181.979 56.0341 182.468 55.0114C182.962 53.983 183.65 53.1818 184.531 52.608C185.417 52.0284 186.451 51.7386 187.633 51.7386C188.315 51.7386 188.988 51.8523 189.653 52.0795C190.317 52.3068 190.923 52.6761 191.468 53.1875C192.013 53.6932 192.448 54.3636 192.772 55.1989C193.096 56.0341 193.258 57.0625 193.258 58.2841V59.1364H183.167V57.3977H191.212C191.212 56.6591 191.065 56 190.769 55.4205C190.479 54.8409 190.065 54.3835 189.525 54.0483C188.991 53.7131 188.36 53.5455 187.633 53.5455C186.832 53.5455 186.138 53.7443 185.553 54.142C184.974 54.5341 184.528 55.0455 184.215 55.6761C183.903 56.3068 183.746 56.983 183.746 57.7045V58.8636C183.746 59.8523 183.917 60.6903 184.258 61.3778C184.604 62.0597 185.085 62.5795 185.698 62.9375C186.312 63.2898 187.025 63.4659 187.837 63.4659C188.366 63.4659 188.843 63.392 189.269 63.2443C189.701 63.0909 190.073 62.8636 190.386 62.5625C190.698 62.2557 190.94 61.875 191.11 61.4205L193.053 61.9659C192.849 62.625 192.505 63.2045 192.022 63.7045C191.539 64.1989 190.942 64.5852 190.232 64.8636C189.522 65.1364 188.724 65.2727 187.837 65.2727ZM203.067 65V51.9091H205.079V65H203.067ZM204.09 49.7273C203.698 49.7273 203.36 49.5938 203.076 49.3267C202.798 49.0597 202.658 48.7386 202.658 48.3636C202.658 47.9886 202.798 47.6676 203.076 47.4006C203.36 47.1335 203.698 47 204.09 47C204.482 47 204.817 47.1335 205.096 47.4006C205.38 47.6676 205.522 47.9886 205.522 48.3636C205.522 48.7386 205.38 49.0597 205.096 49.3267C204.817 49.5938 204.482 49.7273 204.09 49.7273ZM210.774 57.125V65H208.763V51.9091H210.706V53.9545H210.876C211.183 53.2898 211.649 52.7557 212.274 52.3523C212.899 51.9432 213.706 51.7386 214.695 51.7386C215.581 51.7386 216.357 51.9205 217.021 52.2841C217.686 52.642 218.203 53.1875 218.572 53.9205C218.942 54.6477 219.126 55.5682 219.126 56.6818V65H217.115V56.8182C217.115 55.7898 216.848 54.9886 216.314 54.4148C215.78 53.8352 215.047 53.5455 214.115 53.5455C213.473 53.5455 212.899 53.6847 212.393 53.9631C211.893 54.2415 211.499 54.6477 211.209 55.1818C210.919 55.7159 210.774 56.3636 210.774 57.125ZM224.813 57.125V65H222.802V51.9091H224.745V53.9545H224.915C225.222 53.2898 225.688 52.7557 226.313 52.3523C226.938 51.9432 227.745 51.7386 228.734 51.7386C229.62 51.7386 230.396 51.9205 231.06 52.2841C231.725 52.642 232.242 53.1875 232.612 53.9205C232.981 54.6477 233.165 55.5682 233.165 56.6818V65H231.154V56.8182C231.154 55.7898 230.887 54.9886 230.353 54.4148C229.819 53.8352 229.086 53.5455 228.154 53.5455C227.512 53.5455 226.938 53.6847 226.433 53.9631C225.933 54.2415 225.538 54.6477 225.248 55.1818C224.958 55.7159 224.813 56.3636 224.813 57.125ZM242.159 65.2727C240.977 65.2727 239.94 64.9915 239.048 64.429C238.162 63.8665 237.469 63.0795 236.969 62.0682C236.474 61.0568 236.227 59.875 236.227 58.5227C236.227 57.1591 236.474 55.9687 236.969 54.9517C237.469 53.9347 238.162 53.1449 239.048 52.5824C239.94 52.0199 240.977 51.7386 242.159 51.7386C243.341 51.7386 244.375 52.0199 245.261 52.5824C246.153 53.1449 246.847 53.9347 247.341 54.9517C247.841 55.9687 248.091 57.1591 248.091 58.5227C248.091 59.875 247.841 61.0568 247.341 62.0682C246.847 63.0795 246.153 63.8665 245.261 64.429C244.375 64.9915 243.341 65.2727 242.159 65.2727ZM242.159 63.4659C243.057 63.4659 243.795 63.2358 244.375 62.7756C244.955 62.3153 245.384 61.7102 245.662 60.9602C245.94 60.2102 246.08 59.3977 246.08 58.5227C246.08 57.6477 245.94 56.8324 245.662 56.0767C245.384 55.321 244.955 54.7102 244.375 54.2443C243.795 53.7784 243.057 53.5455 242.159 53.5455C241.261 53.5455 240.523 53.7784 239.943 54.2443C239.364 54.7102 238.935 55.321 238.656 56.0767C238.378 56.8324 238.239 57.6477 238.239 58.5227C238.239 59.3977 238.378 60.2102 238.656 60.9602C238.935 61.7102 239.364 62.3153 239.943 62.7756C240.523 63.2358 241.261 63.4659 242.159 63.4659ZM261.397 51.9091L256.556 65H254.511L249.67 51.9091H251.852L255.465 62.3409H255.602L259.215 51.9091H261.397ZM267.506 65.3068C266.676 65.3068 265.923 65.1506 265.247 64.8381C264.571 64.5199 264.034 64.0625 263.636 63.4659C263.239 62.8636 263.04 62.1364 263.04 61.2841C263.04 60.5341 263.188 59.9261 263.483 59.4602C263.778 58.9886 264.173 58.6193 264.668 58.3523C265.162 58.0852 265.707 57.8864 266.304 57.7557C266.906 57.6193 267.511 57.5114 268.119 57.4318C268.915 57.3295 269.56 57.2528 270.054 57.2017C270.554 57.1449 270.918 57.0511 271.145 56.9205C271.378 56.7898 271.494 56.5625 271.494 56.2386V56.1705C271.494 55.3295 271.264 54.6761 270.804 54.2102C270.349 53.7443 269.659 53.5114 268.733 53.5114C267.773 53.5114 267.02 53.7216 266.474 54.142C265.929 54.5625 265.545 55.0114 265.324 55.4886L263.415 54.8068C263.756 54.0114 264.21 53.392 264.778 52.9489C265.352 52.5 265.977 52.1875 266.653 52.0114C267.335 51.8295 268.006 51.7386 268.665 51.7386C269.085 51.7386 269.568 51.7898 270.114 51.892C270.665 51.9886 271.196 52.1903 271.707 52.4972C272.224 52.804 272.653 53.267 272.994 53.8864C273.335 54.5057 273.506 55.3352 273.506 56.375V65H271.494V63.2273H271.392C271.256 63.5114 271.028 63.8153 270.71 64.1392C270.392 64.4631 269.969 64.7386 269.44 64.9659C268.912 65.1932 268.267 65.3068 267.506 65.3068ZM267.812 63.5C268.608 63.5 269.278 63.3438 269.824 63.0312C270.375 62.7188 270.79 62.3153 271.068 61.821C271.352 61.3267 271.494 60.8068 271.494 60.2614V58.4205C271.409 58.5227 271.222 58.6165 270.932 58.7017C270.648 58.7812 270.318 58.8523 269.943 58.9148C269.574 58.9716 269.213 59.0227 268.861 59.0682C268.514 59.108 268.233 59.142 268.017 59.1705C267.494 59.2386 267.006 59.3494 266.551 59.5028C266.102 59.6506 265.739 59.875 265.46 60.1761C265.188 60.4716 265.051 60.875 265.051 61.3864C265.051 62.0852 265.31 62.6136 265.827 62.9716C266.349 63.3239 267.011 63.5 267.812 63.5ZM282.87 51.9091V53.6136H276.086V51.9091H282.87ZM278.063 48.7727H280.075V61.25C280.075 61.8182 280.157 62.2443 280.322 62.5284C280.492 62.8068 280.708 62.9943 280.969 63.0909C281.237 63.1818 281.518 63.2273 281.813 63.2273C282.035 63.2273 282.217 63.2159 282.359 63.1932C282.501 63.1648 282.614 63.142 282.7 63.125L283.109 64.9318C282.972 64.983 282.782 65.0341 282.538 65.0852C282.293 65.142 281.984 65.1705 281.609 65.1705C281.04 65.1705 280.484 65.0483 279.938 64.804C279.398 64.5597 278.95 64.1875 278.592 63.6875C278.239 63.1875 278.063 62.5568 278.063 61.7955V48.7727ZM291.244 65.2727C289.982 65.2727 288.894 64.9943 287.979 64.4375C287.07 63.875 286.369 63.0909 285.874 62.0852C285.386 61.0739 285.141 59.8977 285.141 58.5568C285.141 57.2159 285.386 56.0341 285.874 55.0114C286.369 53.983 287.056 53.1818 287.937 52.608C288.823 52.0284 289.857 51.7386 291.039 51.7386C291.721 51.7386 292.394 51.8523 293.059 52.0795C293.724 52.3068 294.329 52.6761 294.874 53.1875C295.42 53.6932 295.854 54.3636 296.178 55.1989C296.502 56.0341 296.664 57.0625 296.664 58.2841V59.1364H286.573V57.3977H294.619C294.619 56.6591 294.471 56 294.175 55.4205C293.886 54.8409 293.471 54.3835 292.931 54.0483C292.397 53.7131 291.766 53.5455 291.039 53.5455C290.238 53.5455 289.545 53.7443 288.96 54.142C288.38 54.5341 287.934 55.0455 287.621 55.6761C287.309 56.3068 287.153 56.983 287.153 57.7045V58.8636C287.153 59.8523 287.323 60.6903 287.664 61.3778C288.011 62.0597 288.491 62.5795 289.104 62.9375C289.718 63.2898 290.431 63.4659 291.244 63.4659C291.772 63.4659 292.249 63.392 292.675 63.2443C293.107 63.0909 293.479 62.8636 293.792 62.5625C294.104 62.2557 294.346 61.875 294.516 61.4205L296.46 61.9659C296.255 62.625 295.911 63.2045 295.428 63.7045C294.945 64.1989 294.349 64.5852 293.638 64.8636C292.928 65.1364 292.13 65.2727 291.244 65.2727ZM311.417 65.2727C310.326 65.2727 309.363 64.9972 308.528 64.446C307.692 63.8892 307.039 63.1051 306.567 62.0938C306.096 61.0767 305.86 59.875 305.86 58.4886C305.86 57.1136 306.096 55.9205 306.567 54.9091C307.039 53.8977 307.695 53.1165 308.536 52.5653C309.377 52.0142 310.349 51.7386 311.451 51.7386C312.303 51.7386 312.977 51.8807 313.471 52.1648C313.971 52.4432 314.352 52.7614 314.613 53.1193C314.88 53.4716 315.087 53.7614 315.235 53.9886H315.406V47.5455H317.417V65H315.474V62.9886H315.235C315.087 63.2273 314.877 63.5284 314.604 63.892C314.332 64.25 313.942 64.571 313.437 64.8551C312.931 65.1335 312.258 65.2727 311.417 65.2727ZM311.69 63.4659C312.496 63.4659 313.178 63.2557 313.735 62.8352C314.292 62.4091 314.715 61.821 315.005 61.071C315.295 60.3153 315.44 59.4432 315.44 58.4545C315.44 57.4773 315.298 56.6222 315.013 55.8892C314.729 55.1506 314.309 54.5767 313.752 54.1676C313.195 53.7528 312.508 53.5455 311.69 53.5455C310.837 53.5455 310.127 53.7642 309.559 54.2017C308.996 54.6335 308.573 55.2216 308.289 55.9659C308.011 56.7045 307.871 57.5341 307.871 58.4545C307.871 59.3864 308.013 60.233 308.298 60.9943C308.587 61.75 309.013 62.3523 309.576 62.8011C310.144 63.2443 310.849 63.4659 311.69 63.4659ZM321.38 65V51.9091H323.391V65H321.38ZM322.403 49.7273C322.011 49.7273 321.673 49.5938 321.388 49.3267C321.11 49.0597 320.971 48.7386 320.971 48.3636C320.971 47.9886 321.11 47.6676 321.388 47.4006C321.673 47.1335 322.011 47 322.403 47C322.795 47 323.13 47.1335 323.408 47.4006C323.692 47.6676 323.835 47.9886 323.835 48.3636C323.835 48.7386 323.692 49.0597 323.408 49.3267C323.13 49.5938 322.795 49.7273 322.403 49.7273ZM332.359 70.1818C331.388 70.1818 330.553 70.0568 329.854 69.8068C329.155 69.5625 328.572 69.2386 328.107 68.8352C327.646 68.4375 327.28 68.0114 327.007 67.5568L328.609 66.4318C328.791 66.6705 329.021 66.9432 329.3 67.25C329.578 67.5625 329.959 67.8324 330.442 68.0597C330.93 68.2926 331.57 68.4091 332.359 68.4091C333.416 68.4091 334.288 68.1534 334.976 67.642C335.663 67.1307 336.007 66.3295 336.007 65.2386V62.5795H335.837C335.689 62.8182 335.479 63.1136 335.206 63.4659C334.939 63.8125 334.553 64.1222 334.047 64.3949C333.547 64.6619 332.871 64.7955 332.018 64.7955C330.962 64.7955 330.013 64.5455 329.172 64.0455C328.337 63.5455 327.675 62.8182 327.186 61.8636C326.703 60.9091 326.462 59.75 326.462 58.3864C326.462 57.0455 326.697 55.8778 327.169 54.8835C327.641 53.8835 328.297 53.1108 329.138 52.5653C329.979 52.0142 330.95 51.7386 332.053 51.7386C332.905 51.7386 333.581 51.8807 334.081 52.1648C334.587 52.4432 334.973 52.7614 335.24 53.1193C335.513 53.4716 335.723 53.7614 335.871 53.9886H336.075V51.9091H338.018V65.375C338.018 66.5 337.763 67.4148 337.251 68.1193C336.746 68.8295 336.064 69.3494 335.206 69.679C334.354 70.0142 333.405 70.1818 332.359 70.1818ZM332.291 62.9886C333.098 62.9886 333.78 62.804 334.337 62.4347C334.893 62.0653 335.317 61.5341 335.607 60.8409C335.896 60.1477 336.041 59.3182 336.041 58.3523C336.041 57.4091 335.899 56.5767 335.615 55.8551C335.331 55.1335 334.911 54.5682 334.354 54.1591C333.797 53.75 333.109 53.5455 332.291 53.5455C331.439 53.5455 330.729 53.7614 330.161 54.1932C329.598 54.625 329.175 55.2045 328.891 55.9318C328.612 56.6591 328.473 57.4659 328.473 58.3523C328.473 59.2614 328.615 60.0653 328.899 60.7642C329.189 61.4574 329.615 62.0028 330.178 62.4006C330.746 62.7926 331.45 62.9886 332.291 62.9886ZM341.7 65V51.9091H343.712V65H341.7ZM342.723 49.7273C342.331 49.7273 341.993 49.5938 341.709 49.3267C341.43 49.0597 341.291 48.7386 341.291 48.3636C341.291 47.9886 341.43 47.6676 341.709 47.4006C341.993 47.1335 342.331 47 342.723 47C343.115 47 343.45 47.1335 343.729 47.4006C344.013 47.6676 344.155 47.9886 344.155 48.3636C344.155 48.7386 344.013 49.0597 343.729 49.3267C343.45 49.5938 343.115 49.7273 342.723 49.7273ZM353.089 51.9091V53.6136H346.305V51.9091H353.089ZM348.282 48.7727H350.293V61.25C350.293 61.8182 350.376 62.2443 350.54 62.5284C350.711 62.8068 350.927 62.9943 351.188 63.0909C351.455 63.1818 351.737 63.2273 352.032 63.2273C352.254 63.2273 352.435 63.2159 352.577 63.1932C352.719 63.1648 352.833 63.142 352.918 63.125L353.327 64.9318C353.191 64.983 353.001 65.0341 352.756 65.0852C352.512 65.142 352.202 65.1705 351.827 65.1705C351.259 65.1705 350.702 65.0483 350.157 64.804C349.617 64.5597 349.168 64.1875 348.81 63.6875C348.458 63.1875 348.282 62.5568 348.282 61.7955V48.7727ZM359.967 65.3068C359.137 65.3068 358.384 65.1506 357.708 64.8381C357.032 64.5199 356.495 64.0625 356.097 63.4659C355.7 62.8636 355.501 62.1364 355.501 61.2841C355.501 60.5341 355.648 59.9261 355.944 59.4602C356.239 58.9886 356.634 58.6193 357.129 58.3523C357.623 58.0852 358.168 57.8864 358.765 57.7557C359.367 57.6193 359.972 57.5114 360.58 57.4318C361.376 57.3295 362.021 57.2528 362.515 57.2017C363.015 57.1449 363.379 57.0511 363.606 56.9205C363.839 56.7898 363.955 56.5625 363.955 56.2386V56.1705C363.955 55.3295 363.725 54.6761 363.265 54.2102C362.81 53.7443 362.12 53.5114 361.194 53.5114C360.234 53.5114 359.481 53.7216 358.935 54.142C358.39 54.5625 358.006 55.0114 357.785 55.4886L355.876 54.8068C356.217 54.0114 356.671 53.392 357.239 52.9489C357.813 52.5 358.438 52.1875 359.114 52.0114C359.796 51.8295 360.467 51.7386 361.126 51.7386C361.546 51.7386 362.029 51.7898 362.575 51.892C363.126 51.9886 363.657 52.1903 364.168 52.4972C364.685 52.804 365.114 53.267 365.455 53.8864C365.796 54.5057 365.967 55.3352 365.967 56.375V65H363.955V63.2273H363.853C363.717 63.5114 363.489 63.8153 363.171 64.1392C362.853 64.4631 362.43 64.7386 361.901 64.9659C361.373 65.1932 360.728 65.3068 359.967 65.3068ZM360.273 63.5C361.069 63.5 361.739 63.3438 362.285 63.0312C362.836 62.7188 363.251 62.3153 363.529 61.821C363.813 61.3267 363.955 60.8068 363.955 60.2614V58.4205C363.87 58.5227 363.683 58.6165 363.393 58.7017C363.109 58.7812 362.779 58.8523 362.404 58.9148C362.035 58.9716 361.674 59.0227 361.322 59.0682C360.975 59.108 360.694 59.142 360.478 59.1705C359.955 59.2386 359.467 59.3494 359.012 59.5028C358.563 59.6506 358.2 59.875 357.921 60.1761C357.648 60.4716 357.512 60.875 357.512 61.3864C357.512 62.0852 357.771 62.6136 358.288 62.9716C358.81 63.3239 359.472 63.5 360.273 63.5ZM371.649 47.5455V65H369.638V47.5455H371.649ZM377.344 47.5455V65H375.333V47.5455H377.344ZM382.324 69.9091C381.983 69.9091 381.679 69.8807 381.412 69.8239C381.145 69.7727 380.96 69.7216 380.858 69.6705L381.369 67.8977C381.858 68.0227 382.29 68.0682 382.665 68.0341C383.04 68 383.372 67.8324 383.662 67.5312C383.957 67.2358 384.227 66.7557 384.472 66.0909L384.847 65.0682L380.006 51.9091H382.188L385.801 62.3409H385.938L389.551 51.9091H391.733L386.176 66.9091C385.926 67.5852 385.616 68.1449 385.247 68.5881C384.878 69.0369 384.449 69.3693 383.96 69.5852C383.477 69.8011 382.932 69.9091 382.324 69.9091Z" fill="#747474"/>
</svg>
