<svg width="307" height="50" viewBox="0 0 307 50" fill="none" xmlns="http://www.w3.org/2000/svg">
<path d="M0.313565 30V0.90909H11.7908C13.9973 0.90909 15.877 1.33049 17.43 2.1733C18.9831 3.00663 20.1668 4.16667 20.9812 5.65341C21.805 7.13068 22.217 8.83523 22.217 10.767C22.217 12.6989 21.8003 14.4034 20.967 15.8807C20.1336 17.358 18.9263 18.5085 17.3448 19.3324C15.7728 20.1562 13.8694 20.5682 11.6346 20.5682H4.31925V15.6392H10.6403C11.824 15.6392 12.7994 15.4356 13.5664 15.0284C14.3429 14.6117 14.9206 14.0388 15.2994 13.3097C15.6876 12.571 15.8817 11.7235 15.8817 10.767C15.8817 9.80114 15.6876 8.95833 15.2994 8.23864C14.9206 7.50947 14.3429 6.94602 13.5664 6.5483C12.7899 6.1411 11.805 5.9375 10.6119 5.9375H6.46413V30H0.313565ZM52.945 15.4545C52.945 18.6269 52.3436 21.3258 51.141 23.5511C49.9478 25.7765 48.319 27.4763 46.2546 28.6506C44.1997 29.8153 41.8891 30.3977 39.3228 30.3977C36.7376 30.3977 34.4175 29.8106 32.3626 28.6364C30.3076 27.4621 28.6836 25.7623 27.4904 23.5369C26.2972 21.3116 25.7006 18.6174 25.7006 15.4545C25.7006 12.2822 26.2972 9.58333 27.4904 7.35795C28.6836 5.13258 30.3076 3.4375 32.3626 2.27273C34.4175 1.09848 36.7376 0.511363 39.3228 0.511363C41.8891 0.511363 44.1997 1.09848 46.2546 2.27273C48.319 3.4375 49.9478 5.13258 51.141 7.35795C52.3436 9.58333 52.945 12.2822 52.945 15.4545ZM46.7092 15.4545C46.7092 13.3996 46.4014 11.6667 45.7859 10.2557C45.1798 8.8447 44.3228 7.77462 43.2148 7.04545C42.1069 6.31629 40.8095 5.9517 39.3228 5.9517C37.8361 5.9517 36.5387 6.31629 35.4308 7.04545C34.3228 7.77462 33.4611 8.8447 32.8455 10.2557C32.2395 11.6667 31.9364 13.3996 31.9364 15.4545C31.9364 17.5095 32.2395 19.2424 32.8455 20.6534C33.4611 22.0644 34.3228 23.1345 35.4308 23.8636C36.5387 24.5928 37.8361 24.9574 39.3228 24.9574C40.8095 24.9574 42.1069 24.5928 43.2148 23.8636C44.3228 23.1345 45.1798 22.0644 45.7859 20.6534C46.4014 19.2424 46.7092 17.5095 46.7092 15.4545ZM57.5011 0.90909H65.0863L73.0977 20.4545H73.4386L81.4499 0.90909H89.0352V30H83.0692V11.0653H82.8278L75.2994 29.858H71.2369L63.7085 10.9943H63.467V30H57.5011V0.90909ZM94.1026 0.90909H101.688L109.699 20.4545H110.04L118.051 0.90909H125.637V30H119.671V11.0653H119.429L111.901 29.858H107.838L100.31 10.9943H100.069V30H94.1026V0.90909ZM136.855 0.90909V30H130.704V0.90909H136.855ZM176.841 11.0938H170.619C170.505 10.2888 170.273 9.57386 169.923 8.94886C169.573 8.31439 169.123 7.77462 168.574 7.32955C168.024 6.88447 167.39 6.54356 166.67 6.30682C165.96 6.07008 165.188 5.9517 164.355 5.9517C162.849 5.9517 161.538 6.32576 160.42 7.07386C159.303 7.8125 158.436 8.89205 157.821 10.3125C157.205 11.7235 156.897 13.4375 156.897 15.4545C156.897 17.5284 157.205 19.2708 157.821 20.6818C158.446 22.0928 159.317 23.1581 160.434 23.8778C161.552 24.5975 162.844 24.9574 164.312 24.9574C165.136 24.9574 165.898 24.8485 166.599 24.6307C167.309 24.4129 167.939 24.0956 168.488 23.679C169.038 23.2528 169.492 22.7367 169.852 22.1307C170.221 21.5246 170.477 20.8333 170.619 20.0568L176.841 20.0852C176.68 21.4205 176.277 22.7083 175.633 23.9489C174.999 25.1799 174.142 26.2831 173.062 27.2585C171.992 28.2244 170.714 28.9915 169.227 29.5597C167.75 30.1184 166.078 30.3977 164.213 30.3977C161.618 30.3977 159.298 29.8106 157.252 28.6364C155.217 27.4621 153.607 25.7623 152.423 23.5369C151.249 21.3116 150.662 18.6174 150.662 15.4545C150.662 12.2822 151.258 9.58333 152.451 7.35795C153.645 5.13258 155.264 3.4375 157.309 2.27273C159.355 1.09848 161.656 0.511363 164.213 0.511363C165.898 0.511363 167.461 0.748105 168.9 1.22159C170.349 1.69508 171.632 2.38636 172.75 3.29545C173.867 4.19507 174.776 5.29829 175.477 6.60511C176.187 7.91193 176.642 9.40814 176.841 11.0938ZM185.718 30H179.127L189.17 0.90909H197.096L207.125 30H200.534L193.247 7.55682H193.02L185.718 30ZM185.306 18.5653H200.875V23.3665H185.306V18.5653ZM205.963 5.98011V0.90909H229.855V5.98011H220.949V30H214.87V5.98011H205.963ZM233.79 30V0.90909H253.392V5.98011H239.941V12.9119H252.384V17.983H239.941V24.929H253.449V30H233.79ZM258.282 30V0.90909H269.76C271.957 0.90909 273.832 1.30208 275.385 2.08807C276.947 2.86458 278.136 3.9678 278.95 5.39773C279.774 6.81818 280.186 8.48958 280.186 10.4119C280.186 12.3437 279.769 14.0057 278.936 15.3977C278.102 16.7803 276.895 17.8409 275.314 18.5795C273.742 19.3182 271.838 19.6875 269.603 19.6875H261.919V14.7443H268.609C269.783 14.7443 270.759 14.5833 271.535 14.2614C272.312 13.9394 272.889 13.4564 273.268 12.8125C273.656 12.1686 273.85 11.3684 273.85 10.4119C273.85 9.44602 273.656 8.63163 273.268 7.96875C272.889 7.30587 272.307 6.80398 271.521 6.46307C270.744 6.11269 269.764 5.9375 268.581 5.9375H264.433V30H258.282ZM273.993 16.7614L281.223 30H274.433L267.359 16.7614H273.993ZM300.314 9.27557C300.2 8.12973 299.712 7.23958 298.85 6.60511C297.989 5.97064 296.819 5.65341 295.342 5.65341C294.338 5.65341 293.491 5.79545 292.799 6.07955C292.108 6.35417 291.578 6.73769 291.208 7.23011C290.849 7.72254 290.669 8.28125 290.669 8.90625C290.65 9.42708 290.759 9.88163 290.995 10.2699C291.242 10.6581 291.578 10.9943 292.004 11.2784C292.43 11.553 292.922 11.7945 293.481 12.0028C294.04 12.2017 294.636 12.3722 295.271 12.5142L297.885 13.1392C299.154 13.4233 300.318 13.8021 301.379 14.2756C302.44 14.7491 303.358 15.3314 304.135 16.0227C304.911 16.714 305.512 17.5284 305.939 18.4659C306.374 19.4034 306.597 20.4782 306.606 21.6903C306.597 23.4706 306.142 25.0142 305.243 26.321C304.352 27.6184 303.065 28.6269 301.379 29.3466C299.703 30.0568 297.681 30.4119 295.314 30.4119C292.965 30.4119 290.92 30.0521 289.177 29.3324C287.444 28.6127 286.09 27.5473 285.115 26.1364C284.149 24.7159 283.642 22.9593 283.595 20.8665H289.547C289.613 21.8419 289.892 22.6562 290.385 23.3097C290.886 23.9536 291.554 24.4413 292.387 24.7727C293.23 25.0947 294.182 25.2557 295.243 25.2557C296.284 25.2557 297.189 25.1042 297.956 24.8011C298.732 24.4981 299.333 24.0767 299.76 23.5369C300.186 22.9972 300.399 22.3769 300.399 21.6761C300.399 21.0227 300.205 20.4735 299.816 20.0284C299.438 19.5833 298.879 19.2045 298.14 18.892C297.411 18.5795 296.516 18.2955 295.456 18.0398L292.288 17.2443C289.835 16.6477 287.899 15.715 286.478 14.446C285.058 13.1771 284.352 11.4678 284.362 9.31818C284.352 7.55682 284.821 6.01799 285.768 4.7017C286.725 3.38542 288.036 2.35795 289.703 1.61932C291.369 0.880681 293.263 0.511363 295.385 0.511363C297.544 0.511363 299.428 0.880681 301.038 1.61932C302.657 2.35795 303.917 3.38542 304.816 4.7017C305.716 6.01799 306.18 7.54261 306.208 9.27557H300.314ZM90.3331 49V37.3636H97.6286V38.875H92.0888V42.4205H97.2479V43.9261H92.0888V47.4886H97.6967V49H90.3331ZM101.536 37.3636V49H99.8374V37.3636H101.536ZM103.822 49V40.2727H105.521V49H103.822ZM104.68 38.9261C104.384 38.9261 104.13 38.8277 103.918 38.6307C103.71 38.4299 103.606 38.1913 103.606 37.9148C103.606 37.6345 103.71 37.3958 103.918 37.1989C104.13 36.9981 104.384 36.8977 104.68 36.8977C104.975 36.8977 105.227 36.9981 105.435 37.1989C105.647 37.3958 105.754 37.6345 105.754 37.9148C105.754 38.1913 105.647 38.4299 105.435 38.6307C105.227 38.8277 104.975 38.9261 104.68 38.9261ZM111.88 40.2727V41.6364H107.113V40.2727H111.88ZM108.391 38.1818H110.09V46.4375C110.09 46.767 110.139 47.0152 110.238 47.1818C110.336 47.3447 110.463 47.4564 110.619 47.517C110.778 47.5739 110.95 47.6023 111.136 47.6023C111.272 47.6023 111.391 47.5928 111.494 47.5739C111.596 47.5549 111.675 47.5398 111.732 47.5284L112.039 48.9318C111.941 48.9697 111.8 49.0076 111.619 49.0455C111.437 49.0871 111.21 49.1098 110.937 49.1136C110.49 49.1212 110.073 49.0417 109.687 48.875C109.3 48.7083 108.988 48.4508 108.749 48.1023C108.511 47.7538 108.391 47.3163 108.391 46.7898V38.1818ZM117.427 49.1761C116.567 49.1761 115.826 48.9924 115.205 48.625C114.588 48.2538 114.111 47.733 113.773 47.0625C113.44 46.3883 113.273 45.5985 113.273 44.6932C113.273 43.7992 113.44 43.0114 113.773 42.3295C114.111 41.6477 114.58 41.1155 115.183 40.733C115.789 40.3504 116.497 40.1591 117.308 40.1591C117.8 40.1591 118.277 40.2405 118.739 40.4034C119.201 40.5663 119.616 40.822 119.984 41.1705C120.351 41.5189 120.641 41.9716 120.853 42.5284C121.065 43.0814 121.171 43.7538 121.171 44.5455V45.1477H114.234V43.875H119.506C119.506 43.428 119.415 43.0322 119.234 42.6875C119.052 42.339 118.796 42.0644 118.467 41.8636C118.141 41.6629 117.758 41.5625 117.319 41.5625C116.842 41.5625 116.425 41.6799 116.069 41.9148C115.717 42.1458 115.444 42.4489 115.251 42.8239C115.061 43.1951 114.967 43.5985 114.967 44.0341V45.0284C114.967 45.6117 115.069 46.108 115.273 46.517C115.482 46.9261 115.772 47.2386 116.143 47.4545C116.514 47.6667 116.948 47.7727 117.444 47.7727C117.766 47.7727 118.059 47.7273 118.325 47.6364C118.59 47.5417 118.819 47.4015 119.012 47.2159C119.205 47.0303 119.353 46.8011 119.455 46.5284L121.063 46.8182C120.934 47.2917 120.703 47.7064 120.37 48.0625C120.04 48.4148 119.626 48.6894 119.126 48.8864C118.629 49.0795 118.063 49.1761 117.427 49.1761ZM126.529 37.3636H128.523L131.563 42.6534H131.688L134.728 37.3636H136.722L132.501 44.4318V49H130.751V44.4318L126.529 37.3636ZM140.482 49.1761C139.664 49.1761 138.95 48.9886 138.34 48.6136C137.73 48.2386 137.257 47.714 136.92 47.0398C136.583 46.3655 136.414 45.5777 136.414 44.6761C136.414 43.7708 136.583 42.9792 136.92 42.3011C137.257 41.6231 137.73 41.0966 138.34 40.7216C138.95 40.3466 139.664 40.1591 140.482 40.1591C141.3 40.1591 142.014 40.3466 142.624 40.7216C143.234 41.0966 143.708 41.6231 144.045 42.3011C144.382 42.9792 144.55 43.7708 144.55 44.6761C144.55 45.5777 144.382 46.3655 144.045 47.0398C143.708 47.714 143.234 48.2386 142.624 48.6136C142.014 48.9886 141.3 49.1761 140.482 49.1761ZM140.488 47.75C141.018 47.75 141.458 47.6098 141.806 47.3295C142.155 47.0492 142.412 46.6761 142.579 46.2102C142.749 45.7443 142.835 45.2311 142.835 44.6705C142.835 44.1136 142.749 43.6023 142.579 43.1364C142.412 42.6667 142.155 42.2898 141.806 42.0057C141.458 41.7216 141.018 41.5795 140.488 41.5795C139.954 41.5795 139.511 41.7216 139.158 42.0057C138.81 42.2898 138.55 42.6667 138.38 43.1364C138.213 43.6023 138.13 44.1136 138.13 44.6705C138.13 45.2311 138.213 45.7443 138.38 46.2102C138.55 46.6761 138.81 47.0492 139.158 47.3295C139.511 47.6098 139.954 47.75 140.488 47.75ZM151.975 45.3807V40.2727H153.68V49H152.009V47.4886H151.918C151.718 47.9545 151.396 48.3428 150.952 48.6534C150.513 48.9602 149.966 49.1136 149.31 49.1136C148.75 49.1136 148.254 48.9905 147.822 48.7443C147.394 48.4943 147.057 48.125 146.81 47.6364C146.568 47.1477 146.447 46.5436 146.447 45.8239V40.2727H148.146V45.6193C148.146 46.214 148.31 46.6875 148.64 47.0398C148.969 47.392 149.397 47.5682 149.924 47.5682C150.242 47.5682 150.558 47.4886 150.873 47.3295C151.191 47.1705 151.454 46.9299 151.663 46.608C151.875 46.286 151.979 45.8769 151.975 45.3807ZM155.962 49V40.2727H157.604V41.6591H157.695C157.854 41.1894 158.135 40.8201 158.536 40.5511C158.942 40.2784 159.4 40.142 159.911 40.142C160.017 40.142 160.142 40.1458 160.286 40.1534C160.434 40.161 160.549 40.1705 160.633 40.1818V41.8068C160.565 41.7879 160.443 41.767 160.269 41.7443C160.095 41.7178 159.921 41.7045 159.746 41.7045C159.345 41.7045 158.987 41.7898 158.673 41.9602C158.362 42.1269 158.116 42.3598 157.934 42.6591C157.752 42.9545 157.661 43.2917 157.661 43.6705V49H155.962ZM166.474 49V37.3636H173.769V38.875H168.229V42.4205H173.388V43.9261H168.229V47.4886H173.837V49H166.474ZM183.444 40.2727L180.279 49H178.461L175.29 40.2727H177.114L179.325 46.9886H179.415L181.62 40.2727H183.444ZM188.505 49.1761C187.645 49.1761 186.905 48.9924 186.283 48.625C185.666 48.2538 185.189 47.733 184.852 47.0625C184.518 46.3883 184.352 45.5985 184.352 44.6932C184.352 43.7992 184.518 43.0114 184.852 42.3295C185.189 41.6477 185.658 41.1155 186.261 40.733C186.867 40.3504 187.575 40.1591 188.386 40.1591C188.878 40.1591 189.355 40.2405 189.817 40.4034C190.28 40.5663 190.694 40.822 191.062 41.1705C191.429 41.5189 191.719 41.9716 191.931 42.5284C192.143 43.0814 192.249 43.7538 192.249 44.5455V45.1477H185.312V43.875H190.585C190.585 43.428 190.494 43.0322 190.312 42.6875C190.13 42.339 189.874 42.0644 189.545 41.8636C189.219 41.6629 188.836 41.5625 188.397 41.5625C187.92 41.5625 187.503 41.6799 187.147 41.9148C186.795 42.1458 186.522 42.4489 186.329 42.8239C186.139 43.1951 186.045 43.5985 186.045 44.0341V45.0284C186.045 45.6117 186.147 46.108 186.352 46.517C186.56 46.9261 186.85 47.2386 187.221 47.4545C187.592 47.6667 188.026 47.7727 188.522 47.7727C188.844 47.7727 189.138 47.7273 189.403 47.6364C189.668 47.5417 189.897 47.4015 190.09 47.2159C190.283 47.0303 190.431 46.8011 190.533 46.5284L192.141 46.8182C192.013 47.2917 191.781 47.7064 191.448 48.0625C191.119 48.4148 190.704 48.6894 190.204 48.8864C189.708 49.0795 189.141 49.1761 188.505 49.1761ZM195.833 43.8182V49H194.134V40.2727H195.765V41.6932H195.873C196.074 41.2311 196.388 40.8598 196.816 40.5795C197.248 40.2992 197.791 40.1591 198.447 40.1591C199.041 40.1591 199.562 40.2841 200.009 40.5341C200.456 40.7803 200.803 41.1477 201.049 41.6364C201.295 42.125 201.418 42.7292 201.418 43.4489V49H199.719V43.6534C199.719 43.0208 199.555 42.5265 199.225 42.1705C198.896 41.8106 198.443 41.6307 197.867 41.6307C197.473 41.6307 197.123 41.7159 196.816 41.8864C196.513 42.0568 196.272 42.3068 196.094 42.6364C195.92 42.9621 195.833 43.3561 195.833 43.8182ZM207.771 40.2727V41.6364H203.004V40.2727H207.771ZM204.282 38.1818H205.981V46.4375C205.981 46.767 206.03 47.0152 206.129 47.1818C206.227 47.3447 206.354 47.4564 206.509 47.517C206.668 47.5739 206.841 47.6023 207.026 47.6023C207.163 47.6023 207.282 47.5928 207.384 47.5739C207.487 47.5549 207.566 47.5398 207.623 47.5284L207.93 48.9318C207.831 48.9697 207.691 49.0076 207.509 49.0455C207.327 49.0871 207.1 49.1098 206.827 49.1136C206.38 49.1212 205.964 49.0417 205.577 48.875C205.191 48.7083 204.879 48.4508 204.64 48.1023C204.401 47.7538 204.282 47.3163 204.282 46.7898V38.1818ZM216.049 42.4034L214.509 42.6761C214.445 42.4792 214.343 42.2917 214.202 42.1136C214.066 41.9356 213.88 41.7898 213.646 41.6761C213.411 41.5625 213.117 41.5057 212.765 41.5057C212.284 41.5057 211.882 41.6136 211.56 41.8295C211.238 42.0417 211.077 42.3163 211.077 42.6534C211.077 42.9451 211.185 43.1799 211.401 43.358C211.617 43.536 211.966 43.6818 212.447 43.7955L213.833 44.1136C214.636 44.2992 215.235 44.5852 215.629 44.9716C216.022 45.358 216.219 45.8598 216.219 46.4773C216.219 47 216.068 47.4659 215.765 47.875C215.466 48.2803 215.047 48.5985 214.509 48.8295C213.975 49.0606 213.356 49.1761 212.651 49.1761C211.674 49.1761 210.877 48.9678 210.259 48.5511C209.642 48.1307 209.263 47.5341 209.123 46.7614L210.765 46.5114C210.867 46.9394 211.077 47.2633 211.396 47.483C211.714 47.6989 212.129 47.8068 212.64 47.8068C213.197 47.8068 213.642 47.6913 213.975 47.4602C214.308 47.2254 214.475 46.9394 214.475 46.6023C214.475 46.3295 214.373 46.1004 214.168 45.9148C213.968 45.7292 213.659 45.589 213.242 45.4943L211.765 45.1705C210.951 44.9848 210.348 44.6894 209.958 44.2841C209.572 43.8788 209.379 43.3655 209.379 42.7443C209.379 42.2292 209.522 41.7784 209.81 41.392C210.098 41.0057 210.496 40.7045 211.004 40.4886C211.511 40.2689 212.093 40.1591 212.748 40.1591C213.691 40.1591 214.433 40.3636 214.975 40.7727C215.517 41.178 215.875 41.7216 216.049 42.4034Z" fill="#747474"/>
</svg>
